<?xml version="1.0" encoding="UTF-8"?>
<svg version="1.1" viewBox="0 0 1024 1024" width="1024" height="1024" xmlns="http://www.w3.org/2000/svg">
<path transform="translate(399,362)" d="m0 0 2 1 2 13 6 9 10 8 11 5 10 2-9-6-5-5-6-8-9-16v-3l8 7 10 13 4 5 10 7 36 18 8 7 6 12 3 10v20l-6 12h-2l-4-12-6-9-8-7-12-6-8-2-9 1-10 6-7 7-3 4h-2l1-4 4-6 4-5 5-4-16 4-16 6-18 8-9 7-3 2 2-5 7-7 13-8 2-1-12-3-9-1h-10l-6 7 2 4 3 5v8l-4 8-6 7-5 8-7-6-3-7-7 4h-12l-17-9 2-6 4-6-1-3-10-7 1-4 7-7 2-1-2-12v-5l6-1h10l6 3 3-9 5-10 9 6 3 4v3h2v-4l4 1 2 6 4 2 6 7 1 10 12-1-6-8 2-1 10 7 7 3h15l27-9h17l16 4 12 6 9 7-4-9-4-6-5-5-10-6-13-5-26-6h-14l-23 5-13-1-10-4-1-2 8 1h13l17-4-4-3-3-1v-3h6l7 4 7 1-8-6-7-10-2-6v-12zm42 39m-104 4-5 8-1 9 6 8 5 5 2 5h3l-2-5-1-2v-21l-4-6zm11 8-1 2 1 3-2 8 1 7 6 12 8-9 1-2-1-9-5-6zm-39 6 1 8 2 4 10-3 8-1-2-4-8-4zm12 12-11 5 2 4 9 10 8 4 4 1h7l-1-4h-3v-5l1-3 6-2v-2l-5-5-4-3zm-16 8-3 3 1 3 8 6 4 2-5 5-3 6 15-2 9-4-3-2-10-5-11-12zm42 1m6 9v5l-4-1-5 8-2 4v7l4 7h2l4-7 6-8 1-2v-8l-4-5zm-11 5-3 3-15 7-13 2 3 3 10 4 7-1 6-4 3-4 4-8v-2z" fill="#2375B8"/>
<path transform="translate(652,423)" d="m0 0h2l-2 5-6 6 12 1-3 2-25 5 14 8 8 7 4 7-1 2-9-10-16-8-15-6-21-6 5 5 7 9 1 5-6-5-6-7-9-5-9-1-13 4-9 5-13 12-9 12-9 15-7 6-4 5-1-5 3-9-4 10-6-5 2-6 5-10-9 14-6-1 2-5 8-14 9-11 11-12 7-7 9-7h2l-1 6-5 5-11 10-4 6 15-15 10-6 8-4 13-4 7-1h14l11 3 13 5 13 2 12-3 9-6zm-93 11m-2 1m-2 1m-1 1m-2 1-1 2 3-1zm-3 2-6 5h3l5-5zm-8 6-9 9-3 4 1 2 13-14zm-19 10m-1 1m-1 1 1 2zm-1 2m-1 1m10 0m-11 1m-1 2m-1 1m-1 2m6 5m-2 4m-1 1 1 2zm-1 2 1 2z" fill="#3086C6"/>
<path transform="translate(322,541)" d="m0 0h11l13 4 11 7 9 9 2 5-7-6-10-7-12-5-14-1-9 3-7 6-2 6v9l4 9 9 8 10 4 10 2h20l21-2h27l20 3 22 6 16 6 23 11 23 13-4 4-5-1-22-11-19-8-18-6-24-5-18-2h-23l-18 1h-14l-14-2-12-4-10-6-6-7-4-8-1-3v-11l4-9 6-7 8-4z" fill="#2374B8"/>
<path transform="translate(616,362)" d="m0 0v3l-6 9-6 11-7 8-11 7h3l13-4 11-7 8-9 4-10 2-8 2 3v8l-4 11-7 9-6 5h7l9-6 4 1-1 3-7 4 17 4h13l8-1-5 4-10 3-13-1-18-4h-15l-11 3-18 4-12 5-16 9-11 9-9 8-9 11-10 13-8 13-2 3-7 1 3-10 11-18 8-10 9-10 9-9 14-11 14-8 19-9 13-8 10-9 13-17z" fill="#2374B8"/>
<path transform="translate(702,558)" d="m0 0 4 2 1 1v8l-6 8-10 7-13 5-24 5-41 7-23 6-18 7-16 8-15 9-22 14-17 10-20 8-8 2h-19l-10-4-6-5 1-2 8 5 7 2h11l13-3 17-8 21-14 19-13 20-12 15-7 16-6 19-5 28-4 36-4 16-4 10-5 5-4 3-6-1-6z" fill="#2274B7"/>
<path transform="translate(519,199)" d="m0 0 3 1 10 14 4-3 8-2h4l1 15-2 6 10-2-1 11-3 7-4 3-7 3-11 3h-10v2l3 2-1 9-6 5-11 3-8-1-6-5-8-2 1-6 6-9-9-6-5-7-2-5-1-10 2-3v-10l2-2 11 7 2-12 2-5 6 2 8 6h2zm0 5-11 10-4 8-1 7 3 10 3 5h2v-3h2v-2h6l2 4 5-5 5-10v-8l-3-6-8-10zm-24 1-2 6v8l6 3h2l5-11-7-5zm11 5m35 3-7 3v11l-7 14-4 3v2l5-2 6-9 3-3 6-1 2-4v-10l-1-4zm-61 4v7l6 8 8 4 8 1-2-11-9-4-8-4zm10 1m-13 6 2 10 4 8 3 3h16l6 2v-2l-5-4-15-5-6-5-4-7zm75 8-1 1-13 2-4 5-3 5-7 5v2l8-1 17-6 3-5 1-8zm-57 15-4 2 14 3 2-1-4-3zm5 7-7 3-4 5v3l9 4 4 3 9-1 6-3 3-3 1-5-2-1h-4l-1-3-6-2z" fill="#2678BB"/>
<path transform="translate(453,294)" d="m0 0h2v12l-5 25 7-9h2l2-4 4-5 2-7 2 1-1 8-5 8-6 7-4 8-2 8 1 13 4 10 9 10 10 9 9 7 9 10 8 16 5 16 1 8-6 9-2 1-4-20-7-16-8-12-11-11-8-7-8-8-11-17-9-15-7-9-9-9v-2l6 2 14 14 4 6 1-8v-20l-3-10-1-5 4 2 4 10z" fill="#2274B7"/>
<path transform="translate(689,681)" d="m0 0h49l9 4 5 5 4 7 1 5v21l-4 10-5 5-4 3-7 2h-48v-41l3-1h9l1 1v29l34-1 6-4 2-6v-17l-3-6-3-2-6-1-43-1v-6l4 2 1 1h21l3 1-1-7h-4l1 5-4-1h2l-1-2-3-1 1 4-3 1-1-1-12-1-4-4zm4 2 1 3h11l1-2zm13 0m28 2-1 2 8 1 8 7 2 5v7h2l-3 8 2 4h-3v-20l-5-7-3-2h-8v2l7 1 5 4 2 5v19h7v-19l-3-8-6-7-6-2zm-41 19-1 4v18h2v-20h2l-1-2zm5 3-2 5v14l1 1v7l-1 5 4 1 3-1v3h2v-2h10l3-1v2h3v-2h19l6-3 7-8-3-1-4 6-5 3h-23v2l-17-1-1-1-1-10v-19zm-5 22v4l3-1v-3zm-1 6v5h3v-5z" fill="#2476B9"/>
<path transform="translate(686,401)" d="m0 0 5 1 7 15 4-2h13l5 1-2 13-2 5 5 2 7 7-5 5-8 5 7 14-12 6-5 3-8 1-8-3-4-3-1 6-6 7-4-2-6-9-5-6-2-5v-7l4-8v-2l-5-7-1-3v-9l4-7 10-11h2l1 5-11 11-2 5 1 6 6 9 2 1 1-6 4-7v-7l-1-8 2-9 4-5zm0 4-4 5-2 10v16l8-6 4-5 1-2v-8l-5-10zm17 14-6 4-3 4 11 2 5 2h3l2-7v-5zm-12 12-9 7-2 2 4 2 4 4v5l-5 2 3 2h7l10-5 11-12v-2l-12-5zm-12 5m-1 1-1 3h2zm39 2-7 7-5 6-12 6 9 4 14 2-2-6-5-6 9-5 4-3-2-4zm-48 9-4 6v8l4 7 7 8 1 2h2l3-7v-7l-6-9-4-2-2-6zm9 6 10 15 8 4 9-2 7-4v-1l-12-2-17-8-1-2z" fill="#2476B9"/>
<path transform="translate(464,680)" d="m0 0h29l8 3 8 7 3 6 1 7v18l-2 10-4 6-6 5-7 2h-32l-9-3-6-5-4-8-1-4v-25l4-10 7-6 5-2zm-2 3-10 4-5 6-2 13v8l2-2v-4l2-1v-11l5-7 9-3h10l2 1 1-3-1-1zm27 0-4 1v2l12 1 6 4 3 5 2 8h1v-8l-6-8-4-3zm-9 1v3h3v-3zm-14 3v3h3v-3zm6 0-1 3h10v-1zm17 1-2 2 9 2 5 5 2 3 2-3-6-7-6-2zm-27 5-6 4-1 2v24l3 6 7 3h28l5-3 2-3v-26l-3-5-4-2zm-11 4-1 9 1 3h1v-12zm52 7v3h3l-1-3zm0 6m-55 2 1 4h2l1-3zm55 1v6h2v-6zm-58 2v8l3 9 8 7 5 2h25v-3h-25l-8-5-4-6-2-7h6l-1-3-5 1-1-3zm57 6v7l-7 5v2l4-1 6-5v-7zm6-14-2 4 1 2v8l-2 9-5 5-5 2v-2l-4-1h-27l-7-3-3-4-1-4h-3l1 5 5 6 7 3h14l12-1-1 5 10-1 6-4 5-8v-21z" fill="#2375B8"/>
<path transform="translate(399,362)" d="m0 0 2 1 2 13 6 9 10 8 11 5 10 2-9-6-5-5-6-8-9-16v-3l8 7 10 13 4 5 10 7 36 18 8 7 6 12 3 12-1 5h-5l-3-4h2l-8-15-4-5-11-7-11-5-30-7h-14l-23 5-13-1-10-4-1-2 8 1h13l17-4-4-3-3-1v-3h6l7 4 7 1-8-6-7-10-2-6v-12z" fill="#3186C6"/>
<path transform="translate(385,680)" d="m0 0h21l9 2 8 7 3 5 1 4v28l-4 9-8 7-9 2h-30l-9-3-5-4-4-6-1-3v-31l4-8 5-5 6-3zm7 3v4l3-1v-2zm6 0 1 3 12 1 6 4 4 8 1 21-2 1h2l-3 10-7 6-14 2-1 2h11l7-3 5-4 4-8v-27l-3-7-4-5-6-3-4-1zm-14 0v6h-3l1-5h-10l-8 6-3 6v2l4 1 3-9 3-1 1 5h1v-8h5l-1 4 31 1 3 1 1-3-2-1h-13l-8 1v-5zm30 9-1 3 3 3 1 19h3l-1-20-3-5zm-37 1-5 3-3 5v23l4 6 9 2h24l5-2 3-4v-27h-2l-2-4-3-2zm-15 8-2 3 4 1 1-3zm-2 7v6h4v12 3h-2l1 4 7 6 8 2h18l1-4 9-1-1-2-30-1-7-6-1-2-1-17h-2v4h-3zm0 7v12l2-1-1-11zm58 3 1 2z" fill="#2577BA"/>
<path transform="translate(613,243)" d="m0 0h2l5 6 5 5 9-3 3 10v4l2-1h9v-3l-10 2 1-4 2-1h11l-1 8h4l-1 6-6 12-5 4h-2l4 6 4 7 2 4-6 3-10 1-3-1-1 8-3 7-10-6-6-3-4-6v-3l-4 3-12 1-4-5 2-13 5-6-4-6v-19l4-1 7 2 4-10zm0 5-6 9-1 7 3 5 1 5h1l2-8 6-7 2-1-1-4-5-6zm18 8-13 7-3 4-3 12-1 3 3-1v-2l3 1 5-1 2 2 2 4 6-5 2-6v-10l-2-8zm-36 7v16l6 7 9 1-1-5-3-12-4-5zm43 5-4 13-6 6h7l7-2 5-6 4-10-2-1zm-28 8m15 11m-28 1-4 4v13h7l6-2 5-9v-4l-9-1zm26 2-5 2 2 5 5 5 6 3h11l3-1-2-6-4-7-2-1zm-9 2-3 7v8l5 5 11 5 2-8-3-3-7-6-4-8z" fill="#2578BB"/>
<path transform="translate(413,243)" d="m0 0 4 2 7 9 2 7 6-2h5v21l-4 5 5 5 1 10v6l-6 3-10-2h-3l-4 6-8 5-7 4h-2l-4-13-14-2-4-2v-3l4-4 3-6 3-4-4-2-4-4-6-13v-3l4-2-1-6h12l2 4-10-1v3h9l2 1 1-8 2-6 10 4 2-5zm0 5-6 8 1 3 7 6 2 10 5-10 1-3-3-8-5-6zm-17 8-2 8v11l3 6 4 4h2l2-5 3-2v2l6 1 2 2-2-15-4-5zm34 7-6 4-3 6-2 9-2 5h7l5-3 4-5 1-4-1-12zm-51 5-1 3 6 12 8 4h7l-6-8-2-9-2-2zm20 19m29 1-2 1-10 1 2 6 3 6 6 3h7l1-3v-9l-2-4zm-37 2-5 5-3 6v3l4 1h8l9-4 6-7v-2l-8-2zm22 3-7 10-7 5 1 7 2 1 10-4 4-5 1-7-3-7z" fill="#2F84C4"/>
<path transform="translate(538,539)" d="m0 0h1l1 15 1 5v-15l2-4 6 14 7 9 11 10 15 9 15 7v2l-12 3-25-12-11-7 9 10 13 10 3 2v2l-8 3-19-13-12-11-5-5-4-5-3-9v-6l6-6h2l2 15-1-6v-9l3-5zm4 23 1 3z" fill="#2273B7"/>
<path transform="translate(573,294)" d="m0 0 2 3 6 22 6-11 2 1-1 5-3 12v14l1 11 7-9 8-8 9-6-1 4-12 12-7 11-9 16-9 12-11 11-8 7-9 11-9 6-4 3h-2v2h-2l2-9 6-11 5-6 11-9 13-11 7-9 4-9 1-6v-8l-3-10-6-9-6-8-2-9 2-3 3 9 9 10 4 5-1-9-4-18v-8z" fill="#3187C7"/>
<path transform="translate(275,681)" d="m0 0h54l8 5 4 6 1 4v10l-3 7-4 5-8 3-5 1 16 17 3 4-2 1h-13l-8-7-12-14-3-3-4-1v-10l27-1 2-3-1-9-2-2-51-1v-3h50v-2h-49zm2 3 1 2h2v-2zm4 0v2l48 1 5 5 2 4v11l-4 6-5 2-1-3-3 1v3h-16v4l1-2h20l6-3 4-6 1-4v-8l-3-7-5-5-3-1zm48 25-2 3h4v-3zm-27 3v6l2-1v-3h18v-2zm16 8-2 1 2 5 6 7 3-1-7-8v-4zm-8 1 2 2v-2zm2 3 6 8 5 6 8-1-1-2h-8l-2-4-6-7zm21 15-1 2 3-1z" fill="#277ABC"/>
<path transform="translate(695,541)" d="m0 0h13l9 3 8 7 4 8 1 3v11l-4 11-6 8-8 7-11 5-16 3h-19l-33-4v-1l24-4h9l11 1h9l12-2 9-4 8-6 6-9 2-8-1-10-4-7-6-4-9-2-12 1-14 5-11 8-7 6 2-5 10-10 10-6 10-4z" fill="#2274B8"/>
<path transform="translate(611,703)" d="m0 0h10v3h42v12h-17l-25-1 1 11 3 3h47v13l-51-1-6-3-5-6-2-4v-26zm0 5v20l3 7 4 3v-3l-4-6-1-19 15 1h26 3v2 2h3v-6zm19 4-1 3h27v-1l-22-1zm-14 1v17l6 6h17l-2 3-3 1v-2l-12 1v-2h-2l1 3 2 1h20v-5l9 1 16-1-2-2h-44v-2l-3-3-1-14h9v-2zm30 24v4h2v-4zm21 1-17 1v2h19v-3z" fill="#2173B7"/>
<path transform="translate(526,681)" d="m0 0h68l-1 12h-27v50h-3v-52l3-1h6v-1h-11l1 18-5 1-1 2h5l1 6-1 2h-4l-1 3 5-1 1 1v15l-1 7h-8l-1-50h-26l-1-3zm30 3 1 20h2l1-17h30v-3zm-27 1-1 5h10l-3-5zm11 0-2 3 4-1h13l-1-2zm35 3v2h15v-2zm-34 1v1l12 1v-2zm16 23 1 4 2-1-1-3zm-1 24v4h2v-4z" fill="#2476B9"/>
<path transform="translate(547,327)" d="m0 0 1 3-9 10-10 8-11 11-9 12-4 10-1 5v8l4 11 7 10 9 12-2 4-8 6-4-8-13-19-4-14v-10l4-12 6-10 11-12 8-7 15-10 9-7z" fill="#3187C7"/>
<path transform="translate(391,592)" d="m0 0h17l20 3 22 6 16 6 23 11 23 13-4 4-5-1-22-11-19-8-18-6-24-5-28-3-2-5z" fill="#2273B7"/>
<path transform="translate(318,326)" d="m0 0 9 2 18 6 11 12 9 11 11 14 1 3-1 1h-8l-21-3-20-3-11-9-7-5 1-7 7-21zm6 4 2 6 4 6 9 3 2-5v-4zm-5 1-7 21 6-1 10-5-3-8-4-7zm25 7-2 6 1 5 8 7 12 8 4 3 2-1-10-11-11-14zm-12 8 3 3 6 3 2-1-8-5zm-5 3-6 3 3 2 19 7 4 1v2l-17-6-10-3-4 1 12 10 19 3 5 1h8l-2-2-9-4 10 3 3-1-16-10-14-7z" fill="#2476B9"/>
<path transform="translate(704,326)" d="m0 0 5 1 8 24v5l-11 7-9 6-23 3-17 3h-7l1-5 14-17 8-10 8-9zm-3 4-16 6 1 8 3 1 8-3 6-12zm4 1-6 13v3l12 5 3-1-7-20zm-24 7-12 14-8 10-1 3 5-2 12-9 8-7-3-9zm13 7-9 5-4 4 5-2 9-5zm1 4-22 11-10 7 2 1 25-10 16-5-3-2-4-2zm-15 5m26 1-19 6-22 8 4 1 28-4 11-8 2-3z" fill="#2476B9"/>
<path transform="translate(487,538)" d="m0 0 5 3v5l-6 10 9-11 3 1 3 4-2 4-7 9-8 7-14 8-16 5-20 4-6 3-10-2 4-4 12-5 20-4 9-6 13-12 7-11z" fill="#2274B7"/>
<path transform="translate(503,553)" d="m0 0 5 4-2 5-7 8-6 7-3 7-1 8 3 10 9 10 14 8 9 3-1 3-8-1-17-8-9-8-5-7-2-6v-14l1-5-6 7-24 13-9-2-2-2 8-5 12-5 17-9 6-4h3l2-4 6-5z" fill="#2274B7"/>
<path transform="translate(558,407)" d="m0 0 7 1-1 7-17 9-13 10-10 9-9 11-10 13-8 13-2 3-7 1 3-10 11-18 8-10 9-10 9-9 14-11 14-8z" fill="#3186C7"/>
<path transform="translate(453,221)" d="m0 0 4 2 10 9 4 4-1 15-3 12-8 15-7-6-7-10-4-8-1-5v-13l9-10zm-2 6-7 8-1 1v11h4l6-18v-2zm4 2-4 10-2 6v10l6 17 1-4-3-12 1-6 5-10-1-6-2-5zm4 1 2 5 5 1-5-5zm3 8v6l4 9h1l2-14-1-1zm-18 12-1 2 5 10 1-3-3-8z" fill="#2577BA"/>
<path transform="translate(575,220)" d="m0 0 5 5 10 12-1 14-7 14-10 13h-2l-10-21-2-16v-5l16-15zm3 8 1 7 4 13 4-1v-10l-8-9zm-4 1-3 6v6l4 10v7l-2 8v5l2-2 6-18-2-10-3-12zm-5 2-5 5 5-1 1-4zm-8 7v8l1 7h2l4-11v-4zm22 13-2 9 3-3 2-6zm-3 9 1 2z" fill="#2375B8"/>
<path transform="translate(343,285)" d="m0 0 4 2 12 9 7 3 2 10v13h5l3 3-1 5 2 5-4 1-2-1v-7l-1-3-15-2-10-4-5-3-1-3 3-24zm2 9-1 4 3-1-1-3zm10 3-2 12v8h1l2-14v-6zm3 2v4l6 2v-4zm-15 2 1 5 4 2-1-6zm0 7-1 6 10 6v-3l-8-9z" fill="#2375B8"/>
<path transform="translate(682,285)" d="m0 0h2l4 26-1 4-10 6-14 3-7 3-1 7-3 2-4-1 3-4v-6l2-3h5l1-14 2-9 9-4 9-7zm-1 10v4h2v-4zm-13 3-5 3v3l6-1v-5zm14 3-3 3-1 6 1-2 5-2-1-5zm-10-3v12l1 9h3l8-5v-5l-4 2-4 5-1-1-2-17z" fill="#2274B8"/>
<path transform="translate(464,680)" d="m0 0h29v1l-9 2-4 1v3h3v-3h2v2h12l7 5 3 5 1 5 3-2v16l-1 9h-1l-1-15-1 2 1 2v8l-2 9-4 5-7 2v-2l5-3 4-3v-7l-3-1-1 3-1-24-2-4-5-3-17-2 1-2-4-1-2 1v-2l-8 4h-2v-4h3v-2h10 2v-1h-13l-10 4-4 5-2 13h-1l-2 18h-1v-25l4-10 7-6 5-2zm25 8-2 2 9 2 5 5 2 3 2-3-6-7-6-2zm14 16v3h3l-1-3zm0 6m0 3v6h2v-6z" fill="#2D82C3"/>
<path transform="translate(558,562)" d="m0 0 9 3 16 4h12l15-2h11l12 4 9 6 3 4-1 1h-5l-8-5-6-2h-17l-14 2 14 8-3 2-9-2-19-8-10-6-9-8z" fill="#2374B8"/>
<path transform="translate(377,609)" d="m0 0h18l8 1h27l7 2-2 2-14 3-15 2-13 5-21 12-12 5-10 2h-9l-9-2 4-1 14-1 12-4 13-7 16-10 6-3-17-2-12 2-4 1 4-4z" fill="#2375B8"/>
<path transform="translate(608,681)" d="m0 0h65l-2 8-2 4h-61zm1 3v1h23v-1zm27 0v5l5 1v-6zm7 0v2h4v-2zm7 0v2h19v-2zm-40 4v1h11v-1zm14 0 2 2v-2zm19 0v2l5-1v-1zm6 0v2h18v-2z" fill="#2D82C3"/>
<path transform="translate(481,393)" d="m0 0 7 6 8 11 6 14 4 13 1 8-6 9-2 1-4-20-7-16-8-12-7-7 2-5 5-1z" fill="#3186C7"/>
<path transform="translate(399,362)" d="m0 0 2 1 2 13 6 9 10 8 11 5 4 1-1 4h-3l1 3-6-1h-14l-23 5-13-1-10-4-1-2 8 1h13l17-4-4-3-3-1v-3h6l7 4 7 1-8-6-7-10-2-6v-12z" fill="#2273B7"/>
<path transform="translate(566,375)" d="m0 0h11l-2 4-7 8-7 7-8 7-9 11-9 6-4 3h-2v2h-2l2-9 6-11 5-6 11-9 13-11z" fill="#3186C7"/>
<path transform="translate(514,280)" d="m0 0h2l11 18 3 5-2 9-7 16-6 8-4-4-11-23v-7l11-18zm-1 7 1 2zm3 1v20l9-5-1-4-7-11zm-4 1-8 12v2l7 4h2v-18zm-9 16 1 6 8 16h1v-11l-2-6zm23 0-8 6-1 1v14l3-4 7-15z" fill="#2578BA"/>
<path transform="translate(732,758)" d="m0 0h27l-2 5-1 1-21 1-1 5h19l5 3 2 4-1 7-4 4-4 1h-24l1-6 24-1 1-4-1-1-16-1-7-3-2-2v-8zm3 1 4 1zm14 0m-17 1m-1 1m-1 1m-1 1 1 2zm-1 2 1 3zm1 3 1 3zm1 3m1 1 2 2 3-1zm10 0m13 1m1 1 2 2v-2zm2 2 1 2zm0 5 1 2zm-1 2 1 2z" fill="#2E82C3"/>
<path transform="translate(466,758)" d="m0 0h26l-2 5-1 1-21 1-1 5h19l5 3 2 3v6l-3 5-5 2h-25l1-6 24-1 1-4-1-1-18-1-5-3-2-3v-6l4-5zm1 1v1h8v-1zm-2 1m12 0m-13 1m-1 1m-1 1m-1 2 1 4zm1 4 1 2zm1 2m19 0m-18 1m21 0m-19 1m21 0 3 3-1-3zm-2 1m5 2 1 2zm0 5 1 2z" fill="#277ABC"/>
<path transform="translate(598,620)" d="m0 0h12l8 2 12 5 20 11 21 7v1l-11-1-16-5-24-11-7-2h-13l-19 4h-16l-7-3 4-4h18z" fill="#2375B8"/>
<path transform="translate(641,258)" d="m0 0h11l-1 8h4l-1 6-6 12-5 4h-2l4 6 4 7 2 4-6 3-13 1-3 2-1-4-5-2-6-7-1-6 1-2 3 1 1-8h-2v-2h3l1-2 3 5 5-4 2-6 3 1-1 6-5 5 10-1 5-5 5-10-1-1-9-2-1-3h9v-3l-10 2 1-4zm-16 29m-2 3-5 2 2 5 5 5 6 3h11l3-1-2-6-4-7-2-1z" fill="#2577BA"/>
<path transform="translate(618,706)" d="m0 0h45v12h-17l-25-1 1 11 3 4v2h-3v-2l-3-1-1-2v-14h9v-2h-11l1 17 1 4-3-1-2-4v-19h41 3l2 1-2 4h3v-6h-43zm12 6-1 3h27v-1l-22-1z" fill="#2D81C2"/>
<path transform="translate(635,329)" d="m0 0 1 2-8 22-3 3-14 3-5-1v-11l2-6 3-3 16-6z" fill="#3085C6"/>
<path transform="translate(689,681)" d="m0 0h47l-3 3-2 1 2 2h8l9 8 2 5-1 7h2l-1 6v3 3h-3l-1-20-4-6-3-2-8-1v2h5l1 2-50-1v-6l4 2 1 1h21l3 1-1-7h-4l1 5-4-1h2l-1-2-3-1 1 4-3 1-1-1-12-1-4-4zm4 2 1 3h11l1-2z" fill="#2173B6"/>
<path transform="translate(644,382)" d="m0 0h13l8 3 6 4 5 4h9v4h-19l-18 2-9-3-4-4 1-5zm-6 6 4 1z" fill="#2374B8"/>
<path transform="translate(614,606)" d="m0 0 7 1 20 8 21 11 14 5 5 1h14l12-3 7-4 2 1-9 6-11 4-12 1-17-3-17-7-17-8-20-7-6-3 3-2z" fill="#2375B8"/>
<path transform="translate(392,329)" d="m0 0 21 7 5 4 2 4 1 12-1 3-9-1-11-4-5-12-3-9z" fill="#2274B7"/>
<path transform="translate(403,448)" d="m0 0 6 1v13l-3 8-7 6-12 8h-2v-9l2-13 6-8zm3 1m-1 1m-1 1m-1 1m-1 1m-1 1m-1 1m-1 1m-1 1 1 2zm-1 2m-1 1 1 2zm-1 2-1 4 2-4zm-2 4 1 2zm-1 2 1 2zm-1 3m-1 2 1 2zm-1 2 1 2z" fill="#2374B8"/>
<path transform="translate(521,564)" d="m0 0 3 3 7 12 10 10 7 12 2 5v4l-4 1-7-14-9-9-2-1 2 6 8 13-1 2-6-4-7-10-9-17 2-5z" fill="#2274B8"/>
<path transform="translate(619,447)" d="m0 0 10 4 8 8 3 7 1 18-5-2-15-10-3-5-1-4v-15zm0 2m1 1m1 1m1 1m1 1m1 1m1 1m1 1m1 1 1 2zm1 2m1 1 1 2zm1 2 1 2zm1 2 1 2zm1 3 1 2zm1 2 1 2zm1 3 1 2zm1 2 1 2zm1 2 1 2z" fill="#2273B7"/>
<path transform="translate(522,358)" d="m0 0h2l6 10 5 12v17l-5 13-6 10-4-2-3-3 7-14 2-7v-12l-4-12-4-6 2-4z" fill="#3287C7"/>
<path transform="translate(467,345)" d="m0 0 14 7 9 7 2 3v7l-3 9-4 2-4-2-9-7-3-7-2-14zm2 4m1 1m1 1m1 1 1 2zm1 2m1 1m1 2m1 1m1 2m1 1 1 2zm1 2 1 2zm1 2 1 2zm1 2 1 2zm1 2 1 2zm1 3 1 3zm1 3 1 3z" fill="#2476B9"/>
<path transform="translate(562,346)" d="m0 0h2l-2 14-3 10-7 6-7 4-3-1-3-6v-13l11-8zm-5 8m-1 1m-1 1m-1 2m-1 1m-1 2m-3 5m-1 2m-1 2 1 2zm-1 2 1 2zm-1 3 1 3z" fill="#3186C7"/>
<path transform="translate(373,381)" d="m0 0 10 1 9 6-1 4-5 4-5 2h-15l-17-3 5-6 10-6zm-5 6m4 0m13 1v1h5v-1z" fill="#2374B8"/>
<path transform="translate(652,423)" d="m0 0h2l-2 5-6 6 12 1-3 2-25 5 14 8 8 7 4 7-1 2-9-10-16-8-15-6-16-5 3-2 9-3 14 3 12-2 8-4z" fill="#2374B8"/>
<path transform="translate(376,258)" d="m0 0h12l2 4-10-1 2 5h7v2l-10 1 3 9 3 5 7 3 12 1v2l-2 1-11 1-4 4-4 9h12l8-2-2 5-1 5 2 3 10-4 4-3 1 4-5 4-10 5-3 1-4-13-14-2-4-2v-3l4-4 3-6 3-4-4-2-4-4-6-13v-3l4-2z" fill="#2476B9"/>
<path transform="translate(406,567)" d="m0 0h13l14 2h24l-5 5-7 2h-18l-11-2h-11l-9 3-10 6-5 4h-6l6-7 11-8 9-4z" fill="#2274B7"/>
<path transform="translate(276,682)" d="m0 0h51v1l-46 1v2h48l5 4 3 7-1 6-1-3h-3l1 4-4 1-2-9-2-2-51-1v-3h50v-2h-49zm1 2 1 2h2v-2z" fill="#287BBD"/>
<path transform="translate(396,758)" d="m0 0h6l1 5-1 7h19v-12h7v31h-7v-13h-18v12l-1 1h-6zm4 1v11h1v-11zm22 0 1 3zm3 1 1 2zm0 3m0 2m0 2 1 4zm-2 2m-23 2 1 2 2-2zm23 0-1 3 1 13h1v-16zm-3 1m5 0v15h1v-15zm-25 2v8h1v-8zm-2 6 1 2zm2 3m0 2 1 2z" fill="#2476BA"/>
<path transform="translate(487,681)" d="m0 0h10l7 4 6 7 2 4 1 7v18l-2 10-4 6-6 5-7 2h-32l-9-3-6-5-4-8v-16l1-7h1l1 10v8l3 9 7 6 5 2 25 1v-3h3v2l9-1 6-4 4-7 2-13v-15l-2-4-6-8-6-3-7-1-2 1-5-1 4-2z" fill="#287BBD"/>
<path transform="translate(502,394)" d="m0 0h2l4 11 7 10 9 12-2 4-8 6-4-8-13-19-1-8 1-3 4-1-2-2z" fill="#3287C7"/>
<path transform="translate(613,243)" d="m0 0h2l5 6 5 5 9-3 3 10v4l5 2-4 1-1 8-3-1-2-16-1-2-13 7-3 6-2 9-1-3h-2l2-10 7-8h2l-3-5-3-4h-2l-5 8-1 7 2 5-5-1-4-3-5-2v16l-4-1v-18l4-1 7 2 4-10z" fill="#2476B9"/>
<path transform="translate(302,370)" d="m0 0 6 1 8 4v2h2l4 10-7-1 6 2-4 4-8 3-6-1-15-15v-2zm0 2-2 3 1 5 3-1v-6zm-4 4 1 2zm-1 4 2 5 4 6h1v-8l-2-2zm7 1 1 2 3-1z" fill="#2273B7"/>
<path transform="translate(410,362)" d="m0 0 5 3 9 10 6 8 5 5 8 6 9 5v2h-4l3 1 1 9-20-4-2-4h3l1-3h6l-9-6-5-5-6-8-9-16z" fill="#2E83C4"/>
<path transform="translate(543,428)" d="m0 0h2l-1 6-5 5-11 10-10 13v4h2v2h2l-1 2-8-1-10 16-6-1 2-5 8-14 9-11 11-12 7-7z" fill="#2F84C4"/>
<path transform="translate(720,370)" d="m0 0 5 1 12 7-6 7-8 8-3 2-6-1-9-4-1-2 9-3-9 2 2-6 4-6zm3 2-1 7h3v-6zm3 3 1 3v-3zm0 5-4 2-1 10 3-3 4-7v-2z" fill="#2374B8"/>
<path transform="translate(573,294)" d="m0 0 2 3 6 22 6-11 2 1-1 5-3 12-1 15-8 2-5-12-8-10-3-6-1-6 2-3 3 9 9 10 4 5-1-9-4-18v-8z" fill="#2374B8"/>
<path transform="translate(385,680)" d="m0 0h21v1l-12 1-2 2v2h2l1-2 4 1 12 1 6 4 4 6 1 3v20h-1l-1-9h-1l-1-13-2-5-2 1v4l-4-1-3-2h-30l-5 2 1-10h5v3l30 1 3 1 1-2h-23l-1-5-4-1v6h-3l1-5-10 1-6 4h-3v-3l6-4 3-1z" fill="#287BBD"/>
<path transform="translate(275,702)" d="m0 0h13v41l-3 1h-7l-3-1zm4 2v3l4-1zm-1 5v23h2v-22zm6 0-1 1v30h2v-31zm-6 27v5h2v-5z" fill="#2273B7"/>
<path transform="translate(475,223)" d="m0 0 2 1 5 15 4 5h15v2l-9 3 1 3h3l1 3-6 5-2 5 6 1 7 5 9-1 6-3 3-5v-4l4 1-1 9-6 5-11 3-8-1-6-5-8-2 1-6 6-9-9-6-5-7-2-5-1-10z" fill="#2476B9"/>
<path transform="translate(475,435)" d="m0 0 4 1 9 6 2 4v2h5v-5h1v18l-6 12h-2l-4-12-6-9-3-3-1-7z" fill="#2173B6"/>
<path transform="translate(510,582)" d="m0 0h1l2 8 6 10 9 9 10 7-4 4-4-1-14-11-8-8-1-2 1 8 1 6-4-2-4-8-1-8 5-7z" fill="#2374B8"/>
<path transform="translate(453,294)" d="m0 0h2v12l-5 25 7-9h2l2-4 4-5 2-7 2 1-1 8-5 8-6 7-3 5-5 3-3 4h-2l-1-4-1-15-3-10-1-5 4 2 4 10z" fill="#3186C7"/>
<path transform="translate(540,276)" d="m0 0 3 1 9 13 3 10-1 8-3 5-7-4-4-5-3-11z" fill="#2476B9"/>
<path transform="translate(487,275)" d="m0 0 2 3 2 17-4 11-7 6-5-1-2-11 5-13zm-8 25 1 2zm-1 7m-1 2 1 2z" fill="#2577BA"/>
<path transform="translate(692,701)" d="m0 0h9l1 1v29h29v1l-20 2 4 1-1 2h-8v1h-5l-2-2-1-10v-17l-1 3v13h-2l-1-19 1-1h-2v20l-2-1-1 19h-1v-41z" fill="#2577BA"/>
<path transform="translate(361,758)" d="m0 0h25l-1 5-1 1-22 1v15l1 1 21 1 2 3v4h-23l-5-3-3-3-1-3v-14l3-5zm3 1m4 0v1h16v-1zm-7 1m-2 1m9 0m8 0m-18 1m4 0m-1 1m-4 1m-1 2 1 2zm0 6m0 4v5h1v-5zm2 4m1 1-1 3 3 3h22v-3l-21-1z" fill="#2678BB"/>
<path transform="translate(704,326)" d="m0 0 5 1 6 18-2 2v-2h-2l-4-12v-2h-2l-2 6h-3l2-6-15 5h-2l2 8 7-1v3l-9 5-2 2 9-5 3 1-4 3-21 11-6 4-3 3-1-3 5-5 12-9 7-6-2-8-4 1-2 1 2-4 3-3z" fill="#2577BA"/>
<path transform="translate(519,557)" d="m0 0h2l-1 5-7 13-8 10-9 10-4 2-1-8 10-13 8-16 6 1z" fill="#2273B7"/>
<path transform="translate(439,632)" d="m0 0h11l9 1h12l-5 5-7 1-9-1h-11l-9 3-15 6-5 1h-17l-11-3v-1h22l13-3 15-7z" fill="#2375B8"/>
<path transform="translate(653,758)" d="m0 0h24l-1 5-1 1-20 1-2 3v11l3 3h18l3 2v5h-22l-6-3-3-4-1-4v-9l3-7zm3 1v1h19v-1zm-3 1m-2 1m11 0m3 0v1h8v-1zm-15 1m-1 1m3 0m-4 1 1 2zm3 0m-1 1 1 2zm-3 1 1 3zm2 1m-2 8v6l2 2-1-8zm3 4-1 5 4 3h14v-1l-13-1 1-2zm5 5v1h20v-1zm13 2v1h7v-1z" fill="#277ABD"/>
<path transform="translate(314,769)" d="m0 0 26 1 1 5-1 1h-20l1 5 10 1h11l3 1v6h-25l-6-5-1-13zm1 2v12h1v-11l3-1zm5 0m17 1m-18 11m2 1v1h22v-1zm-3 1m9 1m6 0v1h10v-1z" fill="#2678BB"/>
<path transform="translate(586,757)" d="m0 0 3 1 8 16 2 6h2l2-6 9-16h7l-2 5-12 23-2 3h-5l-6-9-10-19-1-3zm1 3m28 0m-30 2m3 0m26 0m-28 1 1 2zm25 0m-22 1m21 0m3 0m-26 1 1 2zm3 1m19 0m3 0m-24 1 1 2zm23 0 1 2zm-20 1m17 0m-19 1 1 2zm21 0 1 2zm-18 1m15 0m-17 1 1 2zm19 0 1 2zm-16 1m13 0m-15 1m3 1m11 0m3 0m-16 1m12 1m3 0m-14 1m3 1m10 0m-12 1m11 0 1 2zm-10 1m7 0 1 2zm-6 2m2 0m3 0m2 1m-6 1m4 1-3 2 5-1z" fill="#2A7DBF"/>
<path transform="translate(491,307)" d="m0 0h2l3 14 6 12 9 11 4 3-2 4-2 2-4-1-10-8-12-9-5-6 1-2 11 8 7 4-6-12-2-8z" fill="#2375B8"/>
<path transform="translate(447,425)" d="m0 0 13 2 13 5 3 3-1 13-12-7-13-4h-7v-2l4-4 2-5z" fill="#3187C7"/>
<path transform="translate(273,758)" d="m0 0h33v5l-1 1h-11l-1 25h-7v-25h-13zm2 1v1l29 1v-2zm15 2m3 0m3 0v1h7v-1z" fill="#277ABD"/>
<path transform="translate(682,285)" d="m0 0h2l4 26-1 4-10 6-1-3 6-4h2v-5l-5 5-4 3-3-12-3-3 1-7 9-7zm-1 10v4h2v-4zm1 6-3 3-1 6 1-2 5-2-1-5z" fill="#2476B9"/>
<path transform="translate(511,502)" d="m0 0h5v11h14v5l-14-1v27l-4 1-1-1v-27l-12 1-1-5h13z" fill="#2274B7"/>
<path transform="translate(413,243)" d="m0 0 4 2 7 9 2 7 6-2h5v4l-7 1-6 3-4 1 2-6-3-8-4-5-4 2-3 5v2l8 7 1 6h-3l-4-7-13-7-3 8h-2l-1-5 3-9 10 4 2-5z" fill="#2779BC"/>
<path transform="translate(343,285)" d="m0 0 4 2 11 8-1 3-2 4-1 7v11l-4-4-6-7-1 5 2 1v2l-5-1-1-3 3-24zm2 9-1 4 3-1-1-3zm-2 7 1 5 4 2-1-6z" fill="#2476B9"/>
<path transform="translate(495,545)" d="m0 0 3 1 3 4-2 4-7 9-8 7-12 7-2-1 1-7 6-4 5-7 4-2z" fill="#2375B8"/>
<path transform="translate(487,686)" d="m0 0h10l7 5 3 5 1 5 3-2v16l-1 9h-1l-1-15-1 2 1 2v8l-2 9-4 5-7 2v-2l5-3 4-3v-7l-3-1-1 3-1-24-3-6 5 2 2 3 1-2-5-6-12-4zm16 18v3h3l-1-3zm0 6m0 3v6h2v-6z" fill="#3085C6"/>
<path transform="translate(547,327)" d="m0 0 1 3-9 10-10 8-11 11-6 7-3 1-2-2 1-2-4 3v-3l9-10 9-8 15-10 9-7z" fill="#2375B8"/>
<path transform="translate(275,681)" d="m0 0h54l8 5 4 6 1 4v10l-3 7-4 5-4 2-15 1 2 5-4-4-2 1-1 1-2-1v-2l-2-1 3-3h18l6-3 3-5 1-4v-8l-3-7-4-4-3-1-34-1v-1l-18-1-1 2z" fill="#287ABD"/>
<path transform="translate(484,571)" d="m0 0 1 2-5 8-5 4-22 12-9-2-2-2 8-5 12-5 17-9z" fill="#2274B7"/>
<path transform="translate(502,769)" d="m0 0 27 1v5l-1 1h-20l2 6 23 1v6h-24l-5-3-2-4zm2 2v13h1l1-13zm18 0m4 1m-20 2v9l2 1-1-10zm-1 10m3 0v1h23v-1zm-2 1m1 1v1h24v-1z" fill="#3186C7"/>
<path transform="translate(687,769)" d="m0 0 26 1 1 5-1 1h-20l1 6 23 1 1 5-1 1h-24l-5-4-1-3zm2 2v13h1v-13zm8 0 4 1zm7 0v1h8v-1zm-13 4 1 4zm0 7m1 1m-2 1m5 0v1h21v-1zm-4 1m1 1v1h9v-1zm10 0v1h14v-1z" fill="#2E83C4"/>
<path transform="translate(519,199)" d="m0 0 3 1 10 14 4-3 8-2h4l1 15-2 5-3 2v-18l-10 3-1 5-2 1-4-8-7-9-8 6-6 8-1 2-3-1 1-5 7-8z" fill="#2374B8"/>
<path transform="translate(616,362)" d="m0 0v3l-6 9-6 11-7 8-9 6h-7v2l-7 3h-5v-2l18-10 11-10 13-17z" fill="#2F84C5"/>
<path transform="translate(679,338)" d="m0 0v3l-11 14-8 10 2 1-1 3 21-9 6-1-1 3-19 7 11-1-1 3-21 4h-7l1-5 14-17 7-9z" fill="#2476B9"/>
<path transform="translate(493,200)" d="m0 0 6 2 8 6-1 3-10-5-2 5v8l7 3v-3l3 1 1 2-1 7 2 9-1 2h-2v-2l-2-1-2-11-13-5-6-4-1-1v4h-2l-1 2v-10l2-2 11 7 2-12z" fill="#2F84C5"/>
<path transform="translate(544,760)" d="m0 0h24l5 5v11l-6 3 8 9v1h-8l-10-11-2-1v-5h13v-8h-25zm1 2v1h11v-1zm22 0m2 10m-2 1m3 1m-2 1m-5 2 1 2zm-2 2m1 1m2 0m-1 1m3 1-1 2 3 3 3-1z" fill="#2B7FC0"/>
<path transform="translate(394,681)" d="m0 0h18l7 4 6 7 2 6v28l-4 9-8 7-3 1h-11l1-2 12-3 5-4 4-8v-27l-3-7-5-5-8-3-9-1-1 3v-2l-6-1z" fill="#2374B8"/>
<path transform="translate(580,425)" d="m0 0h11l11 3 7 3v2h-2l-1 2-8 2h-3l7 7 5 8-1 3-11-12-7-4-2-8h-2v2l-2-1 3-6h-5z" fill="#2F84C5"/>
<path transform="translate(443,441)" d="m0 0h8v2h2l-3 9-6 6-11 4h-4l1-5 6-12z" fill="#2D82C3"/>
<path transform="translate(732,758)" d="m0 0h27l-2 5-1 1-21 1-1 5h2v2l-3 1 5 1v-3h2v2h9v2l3 1h-16l-7-3-2-2v-8zm3 1 4 1zm14 0m-17 1m-1 1m-1 1m-1 1 1 2zm-1 2 1 3zm1 3 1 3z" fill="#2C80C1"/>
<path transform="translate(513,289)" d="m0 0 1 2h2l1 16 6-4h2l-5-9-1-4h3l8 13-2 9-4 10-4-2 6-13-3 1-7 5-2 4h2v5l-3 1-2-12-6-4 2-1 1-2 5 3z" fill="#2F84C5"/>
<path transform="translate(686,401)" d="m0 0 5 1 7 15 3 2v2l-4 1-3-1-2-6-4-8v-2l-5 5-2 10v13l-3 7-1 5h-2l-2-6 4-7v-7l-1-8 2-9 4-5z" fill="#2578BB"/>
<path transform="translate(575,441)" d="m0 0 9 1 6 4 7 14v2l-11-3-6-3-6-9-1-3z" fill="#2F84C5"/>
<path transform="translate(376,344)" d="m0 0 5 2 10 9 2 5-1 8-3 3-7-4-4-7zm11 16 1 2zm1 4 1 4z" fill="#2375B8"/>
<path transform="translate(336,697)" d="m0 0h1v10l-4 6-4 3-3-1v-3l-2 2-1 3h-16-3v-3h18v-2h-20v6h2l-1 2-4-1v-10l27-1 2-3 4-2v-3h3zm-7 12-2 3h4v-3z" fill="#2577BA"/>
<path transform="translate(466,758)" d="m0 0h26l-2 5-1 1-21 1-1 5 5 1 1 2 6-1 5 2v1h-20l-4-5v-6l4-5zm1 1v1h8v-1zm-2 1m12 0m-13 1m-1 1m-1 1m-1 2 1 4zm1 4 1 2z" fill="#2578BB"/>
<path transform="translate(433,425)" d="m0 0h14l2 1-1 5-3 4h-2v2l-9 5-10 9-3 4h-2l1-4 4-6 4-5 6-5-1-1z" fill="#2A7EC0"/>
<path transform="translate(477,497)" d="m0 0h2l2 3 1 11 5 1 4 4v9l4 2 7 6 2 4-1 5-4 1-5-5-4-5-5-3v-3l4 2 8 7h2l1-2-5-2-7-7v-7l-2-3-3-1-1 3-7-2-1-9h3l1 4v3l3 1-2-3v-8l-3-1z" fill="#287BBD"/>
<path transform="translate(648,344)" d="m0 0h2l-1 15-3 6-7 6-4-2-1-2v-8l4-7zm-7 11m-1 1 1 2zm-1 3 1 2zm-1 3 1 2zm-1 4 1 3z" fill="#2476B9"/>
<path transform="translate(527,390)" d="m0 0 8 1-1 10-8 16-2 3-4-2-3-3 7-14z" fill="#2F84C5"/>
<path transform="translate(534,643)" d="m0 0 20 9 14 4 6 1h9l10-2-3 3-5 2-11 1-15-2-18-6-12-6 3-3z" fill="#2476B9"/>
<path transform="translate(467,249)" d="m0 0 2 3-1 9-9 17-4-4h2l-4-13v-6l6-1h8z" fill="#2273B7"/>
<path transform="translate(613,710)" d="m0 0h20l1 2-4 1-1 2 4-1 9 1-2 2h-19l1 11 3 4v2h-3v-2l-3-1-1-2v-14h9v-2h-11l1 17 1 4-3-1-2-4z" fill="#2A7EC0"/>
<path transform="translate(480,628)" d="m0 0 6 2-6 8-11 9-9 4-11 1-8-3-2-3 4 1h13l12-6 9-9z" fill="#2476BA"/>
<path transform="translate(649,511)" d="m0 0 5 1 2 2-1 6-1 1h-6l-3-3-73-1-16-1v-1h90l1-3zm-1 3 1 5 4-1v-4z" fill="#2D82C3"/>
<path transform="translate(649,731)" d="m0 0h23v13l-26-1v-3l23 1v-3l-5 1 2-4h-37l-5-2v-1z" fill="#2578BB"/>
<path transform="translate(573,689)" d="m0 0 2 1 13 1 4 2h-26v50h-3v-52l3-1h6z" fill="#287ABD"/>
<path transform="translate(562,346)" d="m0 0h2l-2 12-3 1-1 3-1-3-4 1-2 2-2-2-4 1 1 13-3 1-1-12h-3l1-4 14-9z" fill="#2476B9"/>
<path transform="translate(322,397)" d="m0 0h8l1 5-5 6-9 2h-10l2-5 7-6z" fill="#2375B8"/>
<path transform="translate(608,681)" d="m0 0h65v1l-10 1h-19l-2 2h-30l-3 1v3l18 1 3 3h-22z" fill="#2172B6"/>
<path transform="translate(619,447)" d="m0 0 10 4 8 8 3 7 1 18-3-1v-4l-2-1-1-6-2-1v-4l-2-1-2-6-9-10z" fill="#2375B8"/>
<path transform="translate(696,397)" d="m0 0h9l8 5 5 6v2h-12l-6-2-5-5-1-5z" fill="#2274B7"/>
<path transform="translate(447,615)" d="m0 0 5 1-1 3-10 4-20 4-16 8-11 3-2-1 15-7 16-8 17-4z" fill="#2476B9"/>
<path transform="translate(374,511)" d="m0 0 5 1 2 4 24-1h64v1l-14 1-74 1-3 3h-5l-3-3 1-5zm0 3-1 4 4 1 1-4z" fill="#287BBD"/>
<path transform="translate(410,362)" d="m0 0 5 3 9 10 6 8 5 5 3 4-4 3-4-2-5-5-6-9-8-14z" fill="#3085C6"/>
<path transform="translate(584,398)" d="m0 0 2 2h-2l2 2 1 4-4 3-17 5-3-1-1-3h3v-2h-6l4-3 6-2 8-1 4-1v-2z" fill="#2374B8"/>
<path transform="translate(635,329)" d="m0 0 1 2-7 20-2 1-4-8-1-4-5 1v-2l-4-1 2-2z" fill="#2274B7"/>
<path transform="translate(313,758)" d="m0 0h33l-2 6h-31z" fill="#2375B8"/>
<path transform="translate(444,705)" d="m0 0h1l1 10v8l3 9 7 6 5 2 25 1v-3h3v2l5 1-2 2h-35l-9-6-4-6-1-3v-16z" fill="#2476B9"/>
<path transform="translate(502,758)" d="m0 0h32l-2 6h-30z" fill="#2172B6"/>
<path transform="translate(687,758)" d="m0 0h32l-2 6h-30z" fill="#2476B9"/>
<path transform="translate(632,684)" d="m0 0 4 1 1 4h3l1-5 5 4h-3v2l2 1-1 1-14 1-4-2-14-1-3-1v-3l3-1zm-8 4 2 2v-2z" fill="#3187C7"/>
<path transform="translate(720,370)" d="m0 0h4l-1 9v3l-16 5h-3l2-6 4-6z" fill="#2274B7"/>
<path transform="translate(627,362)" d="m0 0 2 3v8l-4 11-7 9-4 4-6-1-1-3 8-6 6-7 4-10z" fill="#3085C6"/>
<path transform="translate(628,758)" d="m0 0h7v30l-1 1h-6zm4 1v7h1v-7zm-2 1 1 2zm0 3-1 2h2zm-1 4m0 2v5h1v-5zm3 0 1 2zm-3 7m3 0 1 2zm-3 3v9h1v-9zm3 2v6h1v-6z" fill="#2D81C2"/>
<path transform="translate(541,400)" d="m0 0 9 3-4 7-15 11h-2v2h-2l2-9 2-4 3-1 1 2h2l1-7z" fill="#2477BA"/>
<path transform="translate(514,373)" d="m0 0 3 1 4 9-1 7-4 9h-2l-4-10v-7zm1 18-1 2h2z" fill="#2475B9"/>
<path transform="translate(548,632)" d="m0 0 4 1 5 6 8 5 3 1h15l8-1-2 2-12 4h-8l-9-3-10-8-4-4v-2z" fill="#2577BA"/>
<path transform="translate(550,389)" d="m0 0 2 1v3l4 3-2 4-3 3-8-2-1 2-1-2-3 7-1 4-5-2 2-5 6-8z" fill="#3186C7"/>
<path transform="translate(458,686)" d="m0 0h5l-3 1v4l2-1h7l1-3 1 2 21 3v1l-30 1-5 3-2 2-2-4v2l-3 1-1-4 5-6z" fill="#2475B9"/>
<path transform="translate(276,682)" d="m0 0h51v1l-46 1v2h39l-1 2h-44zm1 2 1 2h2v-2z" fill="#2678BB"/>
<path transform="translate(457,230)" d="m0 0 5 5 1 9 5 11h-13l-3 1 1-6 5-10-1-6-1-3z" fill="#3085C6"/>
<path transform="translate(275,702)" d="m0 0h13v41h-1l-1-31-1-3-1 1-1 30h-1l-1-28-2-2-4 1zm4 2v3l4-1z" fill="#2577BA"/>
<path transform="translate(452,399)" d="m0 0 16 7 1 3-5 2v4l-12-4-1-6-2-1h2v-2l-3 1v-2h4z" fill="#2375B9"/>
<path transform="translate(535,306)" d="m0 0 2 2v12l-3 10-5 9-9 6-2-1 11-16 4-9z" fill="#2374B8"/>
<path transform="translate(458,681)" d="m0 0h11l6 1v1l-13 1-10 4-4 5-2 13h-1l-2 18h-1v-25l4-10 7-6z" fill="#2D82C3"/>
<path transform="translate(633,710)" d="m0 0h21 3l2 1-2 4h4v2l2 1h-17l-6-1 3-3h-9l-2-2z" fill="#3085C5"/>
<path transform="translate(633,274)" d="m0 0 3 1-1 6-5 5v3l-7-1h-3l1-5h-2v-2h3l1-2 3 5 5-4zm-13 15 1 3h-3l5 8 6 3-2 2-3 1-7-8-1-6 1-2 3 1z" fill="#2476B9"/>
<path transform="translate(401,302)" d="m0 0h2l-2 5-1 5 2 3 10-4 4-3 1 4-5 4-10 5-3 1-4-13-1-3 1-2z" fill="#287BBD"/>
<path transform="translate(355,768)" d="m0 0 3 1 2 12-1 3 2 2h10v-1h12v-2h-19v-1h20l2 3v4h-23l-5-3-3-3-1-5 1-4zm1 4m0 4v5h1v-5z" fill="#2B7FC0"/>
<path transform="translate(473,526)" d="m0 0 1 2-36 15-27 11h-2l-1 4-3 1-3-2 1-5 3-1 3 1 49-20zm-68 27v4l2-1-1-3z" fill="#277ABD"/>
<path transform="translate(543,428)" d="m0 0h2l-1 6-5 5-12 11-5-1 2-4 10-10z" fill="#2F84C5"/>
<path transform="translate(611,703)" d="m0 0h10v3h-3v2h-7l1 20 3 7 1 2-5-1-3-6v-26z" fill="#277ABD"/>
<path transform="translate(320,770)" d="m0 0h20l1 5-1 1h-20l-1-2 1 9-2 1-1-2v-9l3-2z" fill="#2F84C5"/>
<path transform="translate(552,527)" d="m0 0 5 1 60 24h6l1 1v5l-5 1-2-2v-3l-10-3-41-17-14-6zm67 27 1 3h2v-3z" fill="#277ABC"/>
<path transform="translate(395,402)" d="m0 0 5 2-3 4-9 2-13-1-10-4-1-2 8 1h13z" fill="#2F84C5"/>
<path transform="translate(542,492)" d="m0 0 4 2-1 3-9 6-1 2 4-1 2 1v7l-1 1h-5l-2-3v-7h-1l-2 6-6 1 2-5 7-7 4-1-1 3h2l1-4zm-6 14v4h3v-3z" fill="#2D81C2"/>
<path transform="translate(397,759)" d="m0 0 2 4 1 8h3 16v3h-17l1 2v12l-1 1h-6l4-2v-4l-2 4h-1zm3 15v8h1v-8zm-2 6 1 2z" fill="#3085C6"/>
<path transform="translate(302,370)" d="m0 0m-2 1h2l-1 8h3v3l-6-1 6 9 1 2-5-1-12-12v-2zm-2 5 1 2z" fill="#2477BA"/>
<path transform="translate(561,330)" d="m0 0 4 1-1 5-14 6-5 4-6 10h-1v-7l4-6 8-6 10-6z" fill="#277ABC"/>
<path transform="translate(543,228)" d="m0 0 4 2 4 1v3l-13 2-7 10-6 4h-2l-2-2h-3v-3h7l5-5 5-8 2-1h6z" fill="#3085C6"/>
<path transform="translate(590,681)" d="m0 0h4l-1 12-18-2-3-2v-3h17l1-2h-30l2-2h23zm-15 7v2h15v-2z" fill="#2B7FC1"/>
<path transform="translate(588,425)" d="m0 0 12 2 9 4v2h-2l-1 2-8 2-7-1-1-4 2-2-4-4z" fill="#3186C7"/>
<path transform="translate(394,251)" d="m0 0 5 2 6 1v2h2l5 5 5 6v4h-3l-4-7-13-7-3 8h-2l-1-5z" fill="#2476BA"/>
<path transform="translate(554,228)" d="m0 0h3l-1 11-3 7-4 3-7 3-9 2 2-4 8-4 7-3 2-10-1-2-2-1z" fill="#2678BB"/>
<path transform="translate(505,772)" d="m0 0h18v3l-14 1v5l1 1 23 1v5l-1-2h-25l-2-2zm1 2v9l2 1-1-10zm2 10v1h23v-1z" fill="#277ABC"/>
<path transform="translate(648,775)" d="m0 0 4 2 2 4 2 1h18l3 2v5h-22l1-2-4-3v-2l-1 1h-2zm7 9v1h20v-1zm13 2v1h7v-1z" fill="#2D81C3"/>
<path transform="translate(465,330)" d="m0 0 6 2 14 9 6 7 1 6-3-1-6-8-17-10z" fill="#2375B8"/>
<path transform="translate(469,407)" d="m0 0 8 4 1 4h-2l1 7h-3l-10-6-1-5 3-1 1-2 2 1z" fill="#3287C7"/>
<path transform="translate(487,782)" d="m0 0 1 2 3 1-3 3-3 1h-25l2-1v-4h22z" fill="#2D82C3"/>
<path transform="translate(513,289)" d="m0 0 1 2h2l1 16 2 1-1 4-3 1-1 4h2v5l-3 1-2-12-6-4 2-1 1-2 5 3z" fill="#3186C7"/>
<path transform="translate(586,757)" d="m0 0 3 1 8 16 2 6h2l2-5 1 2-2 5-4-1-3-6-4 2-10-17v-2zm1 3m-2 2m3 0m-2 1 1 2zm3 1m-2 1 1 2zm3 1m-2 1 1 2zm3 1m-2 1 1 2zm3 1m-2 1 1 2z" fill="#2577BA"/>
<path transform="translate(399,362)" d="m0 0 2 1 2 13 6 9 3 3v4h-5l-7-10-2-6v-12z" fill="#2578BB"/>
<path transform="translate(474,361)" d="m0 0h4l5 11 2 8-4-2-9-7-2-4h2z" fill="#2679BB"/>
<path transform="translate(576,361)" d="m0 0h6l-1 7-1 5-2 2-10 1-1-2 6-10z" fill="#2273B7"/>
<path transform="translate(443,269)" d="m0 0 7 6 4 5 1 2v7l-4 2-4-5-4-15z" fill="#2D82C3"/>
<path transform="translate(544,767)" d="m0 0h5l1 1v20l-1 1h-5l-1-1v-20zm1 2 1 2zm2 0v6h1v-6zm-2 3m0 2 1 2zm0 3v10h1v-10zm2 0 1 3z" fill="#2F84C4"/>
<path transform="translate(522,358)" d="m0 0h2l6 10 3 6v2l-5 1 1-2-5-1-6-10 2-4z" fill="#2274B7"/>
<path transform="translate(275,681)" d="m0 0h54l8 5 2 4-4-2-7-3-34-1v-1l-18-1-1 2z" fill="#2273B7"/>
<path transform="translate(691,772)" d="m0 0h5l4 2v-2h7l4 3-17 1v6l22 1v1l-8 1-2 3h-10l-4-2-2-2v-11zm0 3 1 4z" fill="#287BBD"/>
<path transform="translate(533,220)" d="m0 0 2 1-1 9-6 11-3 3h-2l-1 2h-6l-1-2v-6l4 1 3 3 6-9 2-5 2-7z" fill="#2C80C1"/>
<path transform="translate(594,630)" d="m0 0 4 1 10 4 12 4 7 4-1 2-11-4-17-4-8-4v-2z" fill="#2476B9"/>
<path transform="translate(464,384)" d="m0 0h2v7h2l2-5 4 1 7 5-1 3-3 1-2-1-2 4-8-6-2-3z" fill="#2273B7"/>
<path transform="translate(620,479)" d="m0 0 5 1-1 5-4 1-9 1-54 16v-2l25-8 34-10h2zm1 2v3l2-1v-2z" fill="#287BBD"/>
<path transform="translate(544,209)" d="m0 0h4l1 15-2 5-3 2v-18l-10 3v2l-2-1 2-5z" fill="#287BBE"/>
<path transform="translate(287,760)" d="m0 0h16v1l-10 1v27h-7l4-3v-6l-2-2h2v-2h-3v-2h2v-4l-2 2z" fill="#3187C7"/>
<path transform="translate(403,479)" d="m0 0 5 1v3l12 3 47 14 2 2-10-2-30-9-21-6-5 1-2-2 1-4zm0 2v3h3l-1-3z" fill="#277ABC"/>
<path transform="translate(673,408)" d="m0 0h2l1 5-11 11-2 5v5l-4-2 1-9 9-10z" fill="#3085C5"/>
<path transform="translate(724,371)" d="m0 0 11 6 2 2-14 14-3 1 1-4 1 1 6-11-5 1 1-2zm2 4 1 3v-3z" fill="#2476BA"/>
<path transform="translate(545,252)" d="m0 0h5v3l-4 1-2 6-4 5-9 4-7-1v-4h8l7-4z" fill="#2577BA"/>
<path transform="translate(592,388)" d="m0 0 4 1-3 3-2 5-3 2h-7v2l-7 3h-5v-2l18-10z" fill="#2E83C4"/>
<path transform="translate(467,306)" d="m0 0 2 1-1 8-5 8-6 7-4 5-3-2 2-5 5-6h2l2-4 4-5z" fill="#2577BA"/>
<path transform="translate(481,393)" d="m0 0 7 6 2 4-12 2-5-5 2-5 5-1z" fill="#3086C6"/>
<path transform="translate(457,585)" d="m0 0 3 4v4l-7 4-9-2-2-2 8-5z" fill="#3086C6"/>
<path transform="translate(485,499)" d="m0 0 2 1v7l6 3 2 2v9l4 1 8 7 1 2v6l-2-3-4-5-4-4-4-1-1-4-2-7-7-5-1-7z" fill="#2B7FC1"/>
<path transform="translate(689,681)" d="m0 0h17v2l7 1 1 5-4-1h2l-1-2-3-1 1 4-3 1-1-1-12-1-4-4zm4 2 1 3h11l1-2z" fill="#2678BB"/>
<path transform="translate(547,499)" d="m0 0 4 2-1 4-3 2-1 11 2-1-1 7-3 3h-2v2l-4-1 4-5 1-18 2-5zm-1 3v2h2v-2z" fill="#2D82C3"/>
<path transform="translate(359,332)" d="m0 0 5 1 6 4v12l-2 2-10-8zm2 3v7l5-2 1-3zm5 6-3 3 5 3v-6z" fill="#2476B9"/>
<path transform="translate(447,723)" d="m0 0h3l4 8 4 3 5 2h26v2l-7 1h-21l-8-5-4-5z" fill="#297CBE"/>
<path transform="translate(614,423)" d="m0 0 5 1 3 1 4-2h4v2h-3l1 2h5v-4h7l1 4-12 3-5-1-4-1-1 1h-5l-1-4z" fill="#297CBE"/>
<path transform="translate(609,328)" d="m0 0 1 3-13 13-7 10-1-3h-2l2-4 7-8 9-8z" fill="#2C80C2"/>
<path transform="translate(493,200)" d="m0 0 6 2 8 6-1 3-10-5-2 5-1 9h-2l-1-2v-10z" fill="#2476B9"/>
<path transform="translate(584,269)" d="m0 0 2 1-2 5-2 9-4 6-4 1-1-7 3-6 7-7zm-5 10m-1 1 1 2zm-1 2 1 3zm-1 3 1 4z" fill="#2476B9"/>
<path transform="translate(487,538)" d="m0 0 5 3v5l-7 11-2-1v-3l-3-1z" fill="#2C80C2"/>
<path transform="translate(367,443)" d="m0 0h6l8 4-9 6-7-1-1-5z" fill="#2475B9"/>
<path transform="translate(734,687)" d="m0 0h7l9 8 2 5-1 7h2l-1 6v3 3h-3l-1-20-4-6-3-2-7-2z" fill="#2B7FC1"/>
<path transform="translate(665,332)" d="m0 0 3 1v11l-9 7h-2v-14zm-1 3-5 3 4 4h3v-7zm-5 6v6l4-4z" fill="#2678BB"/>
<path transform="translate(453,695)" d="m0 0 2 1v14l-3 3-4-1 1 4h-3l1-8 1-1v-11h2l1 5v7l1-11z" fill="#287BBE"/>
<path transform="translate(649,511)" d="m0 0 5 1 2 2-1 6-1 1h-6l-3-3-39-1v-1l40-1 1-3zm-1 3 1 5 4-1v-4z" fill="#2476B9"/>
<path transform="translate(555,728)" d="m0 0 5 1 1 2v12h-8v-14zm1 8v4h2v-4z" fill="#2274B8"/>
<path transform="translate(514,311)" d="m0 0 3 1 1 12 2-3 3 1-2 6-6 8-2-2v-3l-1-4 2-5h2v-5h-2z" fill="#2375B8"/>
<path transform="translate(454,710)" d="m0 0h1l1 13 3 6 3 3 4 2-2 1-7-3-4-5v-4h-6v-3h6l-1-2h-5v-2h4l1-4h2z" fill="#2779BC"/>
<path transform="translate(487,681)" d="m0 0h10l7 4 6 7 2 4-1 4h-2l-3-7-5-6-10-3-4 1-5-1 4-2z" fill="#2476B9"/>
<path transform="translate(654,442)" d="m0 0 6 2 1 4-4 4h-6l-3-3-4-2z" fill="#2375B8"/>
<path transform="translate(596,398)" d="m0 0 4 3 1 4-11 3-7 1-1-2 5-1-2-5z" fill="#2E83C4"/>
<path transform="translate(431,285)" d="m0 0 5 3 2 2 1 10v6l-6 3-3-1v-3h4v-12l-2-6-2-1z" fill="#2577BA"/>
<path transform="translate(328,686)" d="m0 0 6 4 3 7-1 6-1-3h-3l1 4-4 1-2-9v-4h2v2h3l-4-4z" fill="#2F84C5"/>
<path transform="translate(537,514)" d="m0 0h3v7l-5 5-5 4v10l-2 3h-4l1-5h2l-1-10 9-6 1-1z" fill="#287BBE"/>
<path transform="translate(495,488)" d="m0 0 6 1 4 4v2l-4 1-2-4-1 5 4 2 4 5 1 6h-3l-4-9-5-3z" fill="#287BBD"/>
<path transform="translate(641,258)" d="m0 0h11v9l-3 2-9-2-1-3h9v-3l-10 2 1-4z" fill="#2C80C1"/>
<path transform="translate(613,710)" d="m0 0h13v3h-10l1 17 1 4-3-1-2-4z" fill="#2F84C5"/>
<path transform="translate(638,682)" d="m0 0h35l-1 5-5 2-13-2 1-2h12l2 1v-2l-20 1v-2l-5 1-6-1z" fill="#3085C6"/>
<path transform="translate(544,760)" d="m0 0h17l8 2 3 4-1 7h-1l-1-7-1-2h-25zm1 2v1h11v-1z" fill="#3287C8"/>
<path transform="translate(436,392)" d="m0 0 5 1 11 6v2h-4l-1 2-7-3-7-4z" fill="#3187C7"/>
<path transform="translate(554,523)" d="m0 0 7 1 51 12h7l1 4-4 1-1-3-9-1-46-11-6-2z" fill="#287BBE"/>
<path transform="translate(558,407)" d="m0 0 7 1-1 7-6 3h-4l-3-7z" fill="#2F84C5"/>
<path transform="translate(612,758)" d="m0 0h7l-2 5-10 19-1-3 2-3h-2l2-6 2-5-1-2zm3 2m-1 2m-3 1m2 1m-1 2m-1 1 1 2zm-1 2 1 2zm-1 2 1 2z" fill="#2A7DBF"/>
<path transform="translate(405,580)" d="m0 0 12 1 2 2-5 2h-8l-16 2 4-4z" fill="#2577BA"/>
<path transform="translate(647,302)" d="m0 0 4 1-1 3-5 2-13 1-3 2-1-4-3-1 2-2h15z" fill="#2476B9"/>
<path transform="translate(662,279)" d="m0 0h7l3 3v6l-4 4-7-1-2-3v-6zm1 3-1 1v5l1 1h5l1-1v-5l-1-1z" fill="#2375B8"/>
<path transform="translate(359,279)" d="m0 0h6l4 5-2 6-2 2h-6l-4-5 1-5zm1 3-2 5 2 2 5-1 1-4-2-2z" fill="#2476B9"/>
<path transform="translate(714,436)" d="m0 0 2 3-2 4-9 10-8 4-2-2 3-3 8-6z" fill="#2577BA"/>
<path transform="translate(542,686)" d="m0 0h10l2 3v1 12h-1l-1-9-19-1v-1h5v-2z" fill="#3085C6"/>
<path transform="translate(377,313)" d="m0 0h2l6 9 1 2v12l-1 9-3 1v-22l-4-8z" fill="#2577BA"/>
<path transform="translate(466,281)" d="m0 0 2 1 1 4-4 13-4 9-1-4 3-16z" fill="#2679BB"/>
<path transform="translate(501,244)" d="m0 0 7 2 2 2h-2v2l5 2-3 3h-13l-1-3h-3l-1-3 14 2-7-4 2-1z" fill="#3186C6"/>
<path transform="translate(414,293)" d="m0 0 4 1 4 8 8 3v3l-7-1h-3l-3 4-2-4 1-7z" fill="#297CBE"/>
<path transform="translate(485,527)" d="m0 0 4 2 8 7h2l1-2-3-1 3-1 3 3 1 6-2 2-4-1-5-5-3-4-5-3z" fill="#2678BB"/>
<path transform="translate(522,520)" d="m0 0 3 2v3l-2 1v21l-2 2h-3l1-5v-21z" fill="#2B7FC1"/>
<path transform="translate(560,282)" d="m0 0 3 1 4 11 2 15h-2l-7-19z" fill="#2577BA"/>
<path transform="translate(614,503)" d="m0 0h3l1 3-4 2-1-1-14 1-33 3h-9v-1l56-6z" fill="#287BBD"/>
<path transform="translate(705,368)" d="m0 0 3 2-2 4h-4l-2 6-9 8-5-1-1-2 9-4 6-7 2-5z" fill="#2679BB"/>
<path transform="translate(284,760)" d="m0 0h3l1 10 2-1-1 5h-2v2h3l1 10v2h-5v-25h-5z" fill="#2375B8"/>
<path transform="translate(573,294)" d="m0 0 2 3 5 19-1 3-4-2-3-14v-8z" fill="#3085C5"/>
<path transform="translate(453,294)" d="m0 0h2v12l-3 13-4-2 1-8z" fill="#2577BA"/>
<path transform="translate(689,703)" d="m0 0 2 4 2 1v17l-2-1-1 19h-1z" fill="#3187C7"/>
<path transform="translate(501,305)" d="m0 0h2l5 12 5 11 2 5-3 1-12-25z" fill="#2F84C4"/>
<path transform="translate(478,758)" d="m0 0h14l-2 5-1 1h-20v-1l8-1z" fill="#297CBE"/>
<path transform="translate(436,425)" d="m0 0h11l2 1-1 5-3 4h-2v2h-2v-2l-3-1h3v-2h-3l2-5z" fill="#2172B6"/>
<path transform="translate(649,313)" d="m0 0 2 1-5 8-1 3v19l-2 2-2-6v-14l5-10z" fill="#2779BC"/>
<path transform="translate(319,369)" d="m0 0 5 1 5 9 5 4 7 2-3 3-5-1-7-6-3-6-4-3z" fill="#2476B9"/>
<path transform="translate(650,760)" d="m0 0 2 1-4 5 2 3 2-1v9l-5-2 2 8 4 3 3 2-6-1-4-5-1-4v-9l3-7z" fill="#277ABD"/>
<path transform="translate(584,340)" d="m0 0h1v11l-1-3h-2l1 5h-5l-2-10 2-2z" fill="#3187C7"/>
<path transform="translate(614,579)" d="m0 0 13 2 3 1v2h-19l-7-2 2-2z" fill="#2476B9"/>
<path transform="translate(500,389)" d="m0 0 3 1-1 5-1 4h-4l-1 5-2-3-1-11 1 2z" fill="#2273B7"/>
<path transform="translate(554,717)" d="m0 0h2v4l5-1 1 1v15h-1l-1-7h-6z" fill="#3287C8"/>
<path transform="translate(627,362)" d="m0 0 2 3v8l-3 9-5 2-2 2v-3l5-9z" fill="#2678BB"/>
<path transform="translate(468,349)" d="m0 0 5 5 4 7h-3l-2 6h-2l-2-9z" fill="#2273B7"/>
<path transform="translate(475,294)" d="m0 0 3 4 1 7 1-1 2 1-2 7-5-1-2-11zm2 15 1 2z" fill="#2374B8"/>
<path transform="translate(647,345)" d="m0 0m-1 1m-2 1 2 1v3l-5 5v3h-2l1 3-5 1-1-4 4-7z" fill="#2678BB"/>
<path transform="translate(539,465)" d="m0 0h1v19l-6-1v-7l3-8z" fill="#2F84C5"/>
<path transform="translate(573,689)" d="m0 0 2 1 13 1 4 2h-27v7l-2 2v-11l3-1h6z" fill="#2172B6"/>
<path transform="translate(478,591)" d="m0 0 2 2-1 5-7 6-6-2 5-5z" fill="#2375B8"/>
<path transform="translate(470,522)" d="m0 0 1 2-52 13h-5l4-2z" fill="#287BBD"/>
<path transform="translate(463,229)" d="m0 0 7 6 1 1-1 15-2 1-1-6 1-7-7-1 1-2 3-1-3-3z" fill="#2A7EC0"/>
<path transform="translate(310,717)" d="m0 0h21l-1 3-14 1 2 5-4-4-2 1-1 1-2-1v-2l-2-1z" fill="#2476BA"/>
<path transform="translate(397,422)" d="m0 0 4 1v2h6v-2h5l1 5-2 2-4-1v-2l-7 3-4-1v-2h3l-3-4z" fill="#2578BB"/>
<path transform="translate(454,222)" d="m0 0 4 2 5 4 1 4-4-1-1 3-3-3v-2l-5-2v2l-3-1z" fill="#2274B7"/>
<path transform="translate(425,759)" d="m0 0h2l1 30h-7v-7h2l1-10 1-5zm0 13v15h1v-15z" fill="#2C80C2"/>
<path transform="translate(689,687)" d="m0 0 4 2 1 1h21v2l3 1h-29z" fill="#2577BA"/>
<path transform="translate(276,682)" d="m0 0h51v1l-40 1h-7l-2 1v2l2 1h-5z" fill="#3389C9"/>
<path transform="translate(433,425)" d="m0 0 8 1-3 6h3v6l-1-2-7 2v-4z" fill="#3389C9"/>
<path transform="translate(362,763)" d="m0 0 1 2-1 2v13l2 2 19 1v1h-21l-2-2-2-6-1-8z" fill="#2375B8"/>
<path transform="translate(701,703)" d="m0 0h1v28h29v1l-23 2v-2h-7z" fill="#3389C9"/>
<path transform="translate(394,681)" d="m0 0h18l6 3v3l-4-1-7-2-9-1-1 3v-2l-6-1z" fill="#2476B9"/>
<path transform="translate(374,511)" d="m0 0 5 1 2 4h8v1l-8 1-3 3h-5l-3-3 1-5zm0 3-1 4 4 1 1-4z" fill="#287CBE"/>
<path transform="translate(369,731)" d="m0 0 2 1v4h14l5-1 1 3-5 2-2-1h-8l-8-3-1-2z" fill="#2B7FC1"/>
<path transform="translate(458,427)" d="m0 0 10 3 4 2-1 5h-5l1-4h-9l-1-5z" fill="#2577BA"/>
<path transform="translate(553,709)" d="m0 0 8 1 1 6-1 2-7-1v12h-1zm4 3 1 4 2-1-1-3z" fill="#2172B6"/>
<path transform="translate(490,488)" d="m0 0 3 1v13l6 3 2 5-4-1-3-3-4-2-1-9h2l-2-6z" fill="#2D82C3"/>
<path transform="translate(525,490)" d="m0 0h2l2 4-1 5-3 2-4-1v2h4l-3 6h-2l-1-10 2-1h4l-1-6z" fill="#2C80C2"/>
<path transform="translate(425,259)" d="m0 0 1 2 6-2h5v4l-7 1-6 3-4 1 2-6z" fill="#297CBE"/>
<path transform="translate(359,708)" d="m0 0h1v6h4l1 12v4h-4l-1-3v-2h-1z" fill="#2B7FC1"/>
<path transform="translate(402,412)" d="m0 0 4 1v2h16l4 2-20 1-5 1-1-1v-5zm0 2v3h2l-1-3z" fill="#2B7FC1"/>
<path transform="translate(433,262)" d="m0 0 3 1 1 8v9l-3 2-2-1 1-6-1-9z" fill="#2F84C5"/>
<path transform="translate(373,686)" d="m0 0h5v3l23 1v1l-22 1-6 4-1-2z" fill="#3186C6"/>
<path transform="translate(418,506)" d="m0 0h12l34 3 5 1v1h-9l-42-4z" fill="#2B7FC0"/>
<path transform="translate(560,306)" d="m0 0 6 12 6 7-5 1-6-8-2-9z" fill="#2E83C4"/>
<path transform="translate(673,293)" d="m0 0 2 4 1 4v3h2l-1 4h-4l-4-6 1-7z" fill="#3086C6"/>
<path transform="translate(628,758)" d="m0 0 3 1h-2l1 28 1-10h3v12h-6zm4 23v6h1v-6z" fill="#2375B8"/>
<path transform="translate(424,546)" d="m0 0 3 1-16 7h-2l-1 4-3 1-3-2 1-5 3-1 3 1zm-19 7v4l2-1-1-3z" fill="#2678BB"/>
<path transform="translate(431,496)" d="m0 0 4 2 28 6 5 1-1 2-30-6h-7l-1-3z" fill="#287BBD"/>
<path transform="translate(477,412)" d="m0 0 4 2 4 4-3 3v4l-6-3v-7z" fill="#2273B7"/>
<path transform="translate(550,243)" d="m0 0 2 2-3 4-7 3-9 2 2-4 8-4z" fill="#2475B9"/>
<path transform="translate(478,215)" d="m0 0h2l1 9 5 7 4 3-2 3-7-6-4-7v-4h2z" fill="#277ABD"/>
<path transform="translate(727,764)" d="m0 0 4 8 7 2v-3h2v2h9v2l3 1h-16l-7-3-2-2z" fill="#2476B9"/>
<path transform="translate(699,729)" d="m0 0 1 3h8v2l4 1h3l-1 2h-8v1h-5l-2-2z" fill="#2A7DBF"/>
<path transform="translate(611,703)" d="m0 0h10v3h-3v2h-7l-1-1-1 13h-1v-16z" fill="#2475B9"/>
<path transform="translate(295,409)" d="m0 0 5 1 2 2v5l-4 3-5-1-2-3 1-5zm1 2-2 2 1 4 5-1-1-4z" fill="#2A7DBF"/>
<path transform="translate(431,281)" d="m0 0h3l-1 4-2 1v3l-5 1h-10l1-3 10-2z" fill="#2A7DBF"/>
<path transform="translate(734,758)" d="m0 0h25l-2 5h-15v-3h5l1 1 7-1-21-1z" fill="#2172B6"/>
<path transform="translate(354,608)" d="m0 0h7l-15 12-5 6-1-2 7-9z" fill="#2578BB"/>
<path transform="translate(428,384)" d="m0 0h3l5 5 2 3-4 3-4-2-3-3z" fill="#2F84C4"/>
<path transform="translate(422,266)" d="m0 0h2l-3 13-6 1-1-9h4l1-3z" fill="#3085C5"/>
<path transform="translate(391,261)" d="m0 0 2 2-1 2h2v9l-3 1-2-9-7 1-2-2 1-1h8l2 1z" fill="#2678BB"/>
<path transform="translate(496,694)" d="m0 0 5 2 2 3h3l-1 5h-2l-2 15h-1l-1-19z" fill="#2375B8"/>
<path transform="translate(556,519)" d="m0 0 31 4 7-1 2 4-4 1-6-2-29-4z" fill="#297CBE"/>
<path transform="translate(580,425)" d="m0 0h8l3 2v2l2 1-2 4-4 1-1-4h-2v2l-2-1 3-6h-5z" fill="#2172B6"/>
<path transform="translate(364,403)" d="m0 0 19 2 2 2-2 2h-8l-10-4z" fill="#2374B8"/>
<path transform="translate(491,307)" d="m0 0h2l3 14 1 6h-4l-2-8z" fill="#2B7EC0"/>
<path transform="translate(643,736)" d="m0 0h23l-2 3-16 1v-3l-4 1-1 2z" fill="#3186C7"/>
<path transform="translate(303,717)" d="m0 0 4 2v2h2l2 2 4-2 2 5h-3l4 6-6-2-8-9z" fill="#2C81C2"/>
<path transform="translate(483,684)" d="m0 0h2v2l4 1v2l8 3 4 4-8-2-6-2-12-1v-1l10-2z" fill="#3187C7"/>
<path transform="translate(467,519)" d="m0 0 3 1-9 2-23 3h-4v2l-4-1 1-4 6 1z" fill="#2A7DBF"/>
<path transform="translate(475,566)" d="m0 0h3l1 7-8 4-1-3 1-5z" fill="#3187C7"/>
<path transform="translate(557,267)" d="m0 0h3l-1 6-3 10h-3v-7z" fill="#287BBD"/>
<path transform="translate(314,731)" d="m0 0 5 1 4 5 5 2-3 1h7v3h-8l-7-7z" fill="#2274B7"/>
<path transform="translate(401,690)" d="m0 0 6 1v2h-29l1-2z" fill="#2172B6"/>
<path transform="translate(458,376)" d="m0 0 4 2 2 5v7l-4-2-3-4z" fill="#3187C7"/>
<path transform="translate(470,267)" d="m0 0 4 3 2 6v7l-4-1-2-9-1-5z" fill="#2476B9"/>
<path transform="translate(489,234)" d="m0 0 12 3 2 1 1 1h3l1 3-8-1-11-4z" fill="#2375B8"/>
<path transform="translate(656,714)" d="m0 0 5 1v2l2 1h-17l-6-1 2-2z" fill="#3288C8"/>
<path transform="translate(534,445)" d="m0 0 4 4-6 7-4-2v-3z" fill="#2273B7"/>
<path transform="translate(530,439)" d="m0 0 3 2-1 4-5 5-5-1 2-4z" fill="#2578BB"/>
<path transform="translate(633,274)" d="m0 0 3 1-1 6-5 5v3l-6-1v-2h2v-2l5-4z" fill="#2C80C1"/>
<path transform="translate(343,785)" d="m0 0h2v4h-25l-3-3 7 1h19z" fill="#2374B8"/>
<path transform="translate(397,759)" d="m0 0 2 4 1 13-1 10-2 1zm1 21 1 2z" fill="#3288C8"/>
<path transform="translate(502,717)" d="m0 0 1 2 3-1 1 1v9l-5 7-7 2v-2l5-3 4-3v-7l-2-1z" fill="#2475B9"/>
<path transform="translate(726,409)" d="m0 0 6 1 1 6-2 3h-6l-2-2 1-7zm0 2-1 5 5 1 1-3-2-3z" fill="#2577BA"/>
<path transform="translate(413,243)" d="m0 0 4 2-4 2-2 4-3 5h-3l-1-3z" fill="#2E83C4"/>
<path transform="translate(717,758)" d="m0 0 2 1-2 5h-15l4-2v-3z" fill="#2F84C5"/>
<path transform="translate(620,734)" d="m0 0 2 1 17 1-2 4h-3v-2l-2 1h-10z" fill="#2F84C5"/>
<path transform="translate(285,702)" d="m0 0h3v41h-1l-1-31z" fill="#3187C7"/>
<path transform="translate(444,697)" d="m0 0 2 2v7h-1l-2 18h-1v-25z" fill="#3389C9"/>
<path transform="translate(586,454)" d="m0 0h5l1 2 2-2 3 6v2l-11-3z" fill="#2476B9"/>
<path transform="translate(611,338)" d="m0 0 6 1v3l-3 3-4 1-3 1v-5z" fill="#2E83C4"/>
<path transform="translate(520,258)" d="m0 0 4 1-1 9-5 4-2-2 2-4 2-6z" fill="#2374B8"/>
<path transform="translate(653,758)" d="m0 0 3 1 19 1-2 2h-11l-10 2-2 3-2-1 4-5-1-2z" fill="#2C81C2"/>
<path transform="translate(543,758)" d="m0 0h27l5 5 1 5-2 6-1-2v-7l-5-5-25-1z" fill="#2577BA"/>
<path transform="translate(425,313)" d="m0 0 5 2-1 6h-6l-1-6z" fill="#2577BA"/>
<path transform="translate(716,783)" d="m0 0 2 2-1 4h-24l3-2h10l2-2h8z" fill="#3086C6"/>
<path transform="translate(689,681)" d="m0 0h17v3h-12l-4 1z" fill="#2D81C3"/>
<path transform="translate(659,432)" d="m0 0 4 2 5 8v4l-4-2-5-9z" fill="#287BBD"/>
<path transform="translate(673,408)" d="m0 0h2l1 5-6 6-5 2 2-4h2l1-6z" fill="#287BBD"/>
<path transform="translate(462,784)" d="m0 0h10v3l3 2h-15l2-1z" fill="#3389C9"/>
<path transform="translate(363,759)" d="m0 0h5l-2 1v2l16 1v1l-19 1-1-2-2 3h-2l-1 2-1-3 3-3 4-1z" fill="#3187C7"/>
<path transform="translate(488,546)" d="m0 0h2l-1 5-4 6-2-1v-3l-3-1 5-5z" fill="#3086C6"/>
<path transform="translate(588,239)" d="m0 0h1v12l-2 4h-2l1-4-4 1v-5h4l1-7z" fill="#2274B7"/>
<path transform="translate(469,770)" d="m0 0h17l-1 5-7-2-6 1v-3z" fill="#3186C7"/>
<path transform="translate(599,314)" d="m0 0h5l1 1v5l-4 2-4-3 1-4z" fill="#2F84C5"/>
<path transform="translate(485,499)" d="m0 0 2 1v7l6 3 2 3h-4l-7-5-1-7z" fill="#2A7EC0"/>
<path transform="translate(704,353)" d="m0 0 2 1-3 3-15 4-1-3z" fill="#2679BB"/>
<path transform="translate(360,335)" d="m0 0h1v7h2l4 4 2 1 1-3-1 7-5-3-6-5 1-3z" fill="#2B7FC1"/>
<path transform="translate(451,282)" d="m0 0 4 1v6l-4 2-4-5 1-3z" fill="#297CBE"/>
<path transform="translate(545,214)" d="m0 0 1 2h2l1 8-2 5-3 2z" fill="#2476B9"/>
<path transform="translate(586,757)" d="m0 0 3 1 6 13h-3l-5-10-3 1v-2h-3v-2z" fill="#2B7FC1"/>
<path transform="translate(283,705)" d="m0 0 2 2-1 3-1 30h-1l-1-28-2-4 3-1z" fill="#3288C8"/>
<path transform="translate(535,497)" d="m0 0 2 1-5 5-2 6-6 1 2-5 7-7z" fill="#2A7EC0"/>
<path transform="translate(671,358)" d="m0 0 4 2-11 7-3 3-1-3 5-5z" fill="#2779BC"/>
<path transform="translate(535,306)" d="m0 0 2 2v12l-1 5h-2l-2-4 2-7z" fill="#2D81C2"/>
<path transform="translate(415,308)" d="m0 0 2 1-1 4-8 5-3-1 1-3 8-5z" fill="#2475B9"/>
<path transform="translate(506,295)" d="m0 0h2l-2 5-2 3 3 1v2l-6-1-1 3v-6l4-6z" fill="#2475B9"/>
<path transform="translate(620,278)" d="m0 0h2v3h-3v2h2v4l-3-1v-3l-3 2-2 1-2-4 3-3z" fill="#2F84C4"/>
<path transform="translate(502,769)" d="m0 0h7l1 2h-5v13l4 4-4-1-3-5z" fill="#2679BB"/>
<path transform="translate(487,686)" d="m0 0h10l7 5 1 3h-3l-5-4-10-3z" fill="#2C81C2"/>
<path transform="translate(527,686)" d="m0 0 1 4h10v1l6 1v1h-18l-1-3z" fill="#2173B6"/>
<path transform="translate(560,453)" d="m0 0 4 1v3l-3 1-10 16-2 1 2-5 8-13z" fill="#2A7EBF"/>
<path transform="translate(407,449)" d="m0 0h1v10l-5-1-2 1-1-3z" fill="#3086C6"/>
<path transform="translate(525,335)" d="m0 0h5l-1 4-9 6-2-1z" fill="#2C81C2"/>
<path transform="translate(498,280)" d="m0 0h5l1 6-5 2-2-2v-5z" fill="#2D82C3"/>
<path transform="translate(551,215)" d="m0 0 5 1 1 5-2 2-4-1-1-1v-5z" fill="#2274B7"/>
<path transform="translate(477,210)" d="m0 0 8 5-2 2h-3l-1-1v4h-2l-1 2v-10z" fill="#2D82C3"/>
<path transform="translate(364,468)" d="m0 0h5l1 1v5l-1 1h-5l-1-1v-5z" fill="#2375B8"/>
<path transform="translate(538,413)" d="m0 0v3l-7 5h-2v2h-2l1-6 5-3z" fill="#2F84C5"/>
<path transform="translate(473,319)" d="m0 0h5l2 2-1 4-5 1-2-2z" fill="#2476B9"/>
<path transform="translate(438,308)" d="m0 0 4 2 4 10-1 2h-3l-4-11z" fill="#2375B8"/>
<path transform="translate(660,284)" d="m0 0 2 1 1 3h5l1-2 3 1-2 4-7 1-4-4z" fill="#2678BB"/>
<path transform="translate(477,736)" d="m0 0h12v2l-7 1h-21v-1l16-1z" fill="#2E83C4"/>
<path transform="translate(655,469)" d="m0 0 5 1 1 4-2 2h-5l-1-5z" fill="#2375B9"/>
<path transform="translate(675,306)" d="m0 0h3l1 3 3 1-6 7-2-2v-7z" fill="#2476B9"/>
<path transform="translate(605,269)" d="m0 0h5l1 7h1v5l-5-2z" fill="#2C80C1"/>
<path transform="translate(510,772)" d="m0 0h13v3l-15 1v-2h2z" fill="#2172B6"/>
<path transform="translate(612,758)" d="m0 0h5l-2 1-2 6-6 11-1-2 4-9-1-2z" fill="#2375B8"/>
<path transform="translate(694,706)" d="m0 0 4 1-1 5v13h-2z" fill="#3389C9"/>
<path transform="translate(520,528)" d="m0 0h1l2 19-2 2h-3l1-5z" fill="#2374B8"/>
<path transform="translate(477,259)" d="m0 0 4 2v4l-4 2-3-2 1-5z" fill="#2679BC"/>
<path transform="translate(355,768)" d="m0 0 3 1 2 12-2 2-3-3-1-2 1-4z" fill="#3389C9"/>
<path transform="translate(503,759)" d="m0 0h29l-1 2-9 1-1-1h-10l-8-1z" fill="#3389C9"/>
<path transform="translate(477,497)" d="m0 0h2l2 3 1 10-3 1v-8l-3-1z" fill="#3085C6"/>
<path transform="translate(581,486)" d="m0 0 3 1-27 11-1-2z" fill="#277ABD"/>
<path transform="translate(486,398)" d="m0 0 4 3v2l-12 2v-3z" fill="#2173B6"/>
<path transform="translate(456,618)" d="m0 0 5 1-3 3-9 5-3-1z" fill="#277ABC"/>
<path transform="translate(606,457)" d="m0 0 5 1v5l-5 1-2-2 1-4z" fill="#2577BA"/>
<path transform="translate(578,397)" d="m0 0 4 2-1 2-7 3h-5v-2z" fill="#3187C7"/>
<path transform="translate(411,322)" d="m0 0 5 1 1 4-2 2-5-1-1-3z" fill="#2374B8"/>
<path transform="translate(450,308)" d="m0 0h3v8l-2 3-3-2 1-8z" fill="#277ABC"/>
<path transform="translate(527,276)" d="m0 0 4 2v5l-5 1-2-5z" fill="#2475B9"/>
<path transform="translate(550,259)" d="m0 0 4 1 1 5-1 1h-5l-1-5z" fill="#2477BA"/>
<path transform="translate(594,775)" d="m0 0h2l3 6 2 1v4l-4-1-2-5h-3l-1-3z" fill="#3085C6"/>
<path transform="translate(544,767)" d="m0 0h5l1 1v20h-1l-2-13v-6z" fill="#3287C8"/>
<path transform="translate(718,732)" d="m0 0 2 2-2 1v3h-12l-3-2h11l-4-1 1-2z" fill="#2172B6"/>
<path transform="translate(613,552)" d="m0 0h10l1 1v5l-5 1-2-2v-3zm6 2 1 3h2v-3z" fill="#2578BB"/>
<path transform="translate(614,503)" d="m0 0h3l1 3-4 2-1-1-17 1-1-2 18-2z" fill="#2B7FC1"/>
<path transform="translate(417,457)" d="m0 0 4 1 1 5-1 1h-5l-1-5z" fill="#277ABC"/>
<path transform="translate(387,373)" d="m0 0 4 1 1 4-1 2h-5l-1-5z" fill="#2274B7"/>
<path transform="translate(341,342)" d="m0 0h2v6l4 4-1 2h-2l-5-5-1-3z" fill="#277ABC"/>
<path transform="translate(350,327)" d="m0 0 5 1 1 4-2 2-5-1v-5z" fill="#2375B8"/>
<path transform="translate(639,264)" d="m0 0h9v2l4 1-3 2-9-2z" fill="#3186C7"/>
<path transform="translate(429,245)" d="m0 0 4 1 1 4-1 2h-5l-1-5z" fill="#2374B8"/>
<path transform="translate(565,724)" d="m0 0h1v19h-3l1-18z" fill="#2172B6"/>
<path transform="translate(304,714)" d="m0 0h18l-1 2-14 1h-3z" fill="#2173B6"/>
<path transform="translate(542,540)" d="m0 0 2 2 1 6-1 1-1 8-2-1v-12z" fill="#2D81C3"/>
<path transform="translate(694,412)" d="m0 0 7 7v2l-4 1-3-1-1-8z" fill="#2F84C5"/>
<path transform="translate(550,319)" d="m0 0 5 1 1 3-2 3-5-1v-5z" fill="#2274B7"/>
<path transform="translate(374,289)" d="m0 0 4 1 1 4-1 2-6-1 1-5z" fill="#2577BA"/>
<path transform="translate(736,770)" d="m0 0h8l3 1 6 1-1 3h-3v-2l-3 1-6-1v-2h-2v3l-4-2h2z" fill="#3389C9"/>
<path transform="translate(419,699)" d="m0 0h3v20h-1l-1-9h-1z" fill="#3389C9"/>
<path transform="translate(453,695)" d="m0 0 2 1v14h-2l-1-4v-9z" fill="#2F84C5"/>
<path transform="translate(479,600)" d="m0 0 3 1-1 5-5 1-2-1 2-4z" fill="#2476BA"/>
<path transform="translate(489,520)" d="m0 0 2 2v3l4 2 4 5-5-1-6-6z" fill="#2E83C4"/>
<path transform="translate(405,385)" d="m0 0 5 1 2 2v4h-5l-4-6z" fill="#2E82C4"/>
<path transform="translate(681,378)" d="m0 0 5 1-1 6-5-1-1-3z" fill="#2375B9"/>
<path transform="translate(341,378)" d="m0 0 5 1 1 3-2 3h-4l-1-5z" fill="#2173B7"/>
<path transform="translate(637,373)" d="m0 0 4 2v5l-4 1-2-1v-5z" fill="#2476B9"/>
<path transform="translate(673,327)" d="m0 0 4 1 1 4-2 2-5-1 1-5z" fill="#2375B8"/>
<path transform="translate(612,322)" d="m0 0 5 1v5l-5 1-1-1v-5z" fill="#2375B9"/>
<path transform="translate(405,314)" d="m0 0 1 4-5 4h-2l-1-5 1-2z" fill="#2B7FC1"/>
<path transform="translate(651,289)" d="m0 0 4 1v5l-5 1-2-4z" fill="#2476B9"/>
<path transform="translate(430,235)" d="m0 0 5 1-1 5-4 1-2-5z" fill="#2476B9"/>
<path transform="translate(744,770)" d="m0 0h9l5 3 1 4-2-1v-2l-4 1-2-2-8-1z" fill="#2476BA"/>
<path transform="translate(732,763)" d="m0 0 2 1v2 4h2v2h-5l-2-4 1-4z" fill="#297DBF"/>
<path transform="translate(583,500)" d="m0 0h6v1l-31 6v-2z" fill="#277ABD"/>
<path transform="translate(445,487)" d="m0 0 6 1 19 8-1 2-24-10z" fill="#2679BC"/>
<path transform="translate(614,423)" d="m0 0 5 1 3 3-3 2h-5l-1-4z" fill="#2375B9"/>
<path transform="translate(332,357)" d="m0 0 9 2 6 3v2l-10-3-7-2z" fill="#2679BC"/>
<path transform="translate(591,344)" d="m0 0h3l-1 6-4 4v-3h-2l2-4z" fill="#2375B9"/>
<path transform="translate(330,315)" d="m0 0h3v2h2l-1 4-2 2-4-1-1-5zm0 2 1 2 2-1zm-1 1v3l3-1h-2z" fill="#297CBE"/>
<path transform="translate(597,245)" d="m0 0 4 1 1 4-2 2-4-1-1-4z" fill="#2375B9"/>
<path transform="translate(595,235)" d="m0 0 5 1 1 3-3 3-4-2z" fill="#287BBD"/>
<path transform="translate(284,760)" d="m0 0h3l1 10 2-1-1 5h-2l-1 2v-13h-5z" fill="#2172B6"/>
<path transform="translate(734,687)" d="m0 0h7l7 6-2 2-5-4-7-2z" fill="#2A7DBF"/>
<path transform="translate(646,683)" d="m0 0h3l1 2 13 2v1l-15 1-4-3h3z" fill="#2273B7"/>
<path transform="translate(395,684)" d="m0 0 11 2v1l-9 2h-8l1-3h4z" fill="#3287C7"/>
<path transform="translate(447,590)" d="m0 0 1 2 4 2 2 2-4 1-8-3 3-3z" fill="#2475B9"/>
<path transform="translate(495,488)" d="m0 0 6 1 4 4v2l-4 1-2-4h-4z" fill="#2F83C4"/>
<path transform="translate(605,415)" d="m0 0h12v2l-6 1h-9l-1-2z" fill="#2B7FC1"/>
<path transform="translate(714,361)" d="m0 0 4 1v5l-5 1-1-1v-5z" fill="#2475B9"/>
<path transform="translate(308,362)" d="m0 0h5l1 5-1 1h-5l-1-4z" fill="#2476B9"/>
<path transform="translate(692,348)" d="m0 0 3 1-4 3-11 5-2-3 5-1z" fill="#297CBE"/>
<path transform="translate(694,315)" d="m0 0h3v2h3l-1 5-4 1-3-3zm1 2 1 4h2l-1-4z" fill="#2679BB"/>
<path transform="translate(526,311)" d="m0 0 2 1-4 10-4-2 4-8z" fill="#2D81C3"/>
<path transform="translate(418,302)" d="m0 0 6 1 6 2v3l-7-1-3-2v-2z" fill="#2E83C4"/>
<path transform="translate(613,710)" d="m0 0h13v3h-12z" fill="#3085C6"/>
<path transform="translate(545,690)" d="m0 0h9v12h-1l-1-9h-8z" fill="#297DBF"/>
<path transform="translate(459,545)" d="m0 0 2 1-11 8-2 3h-3v-4l7-3z" fill="#2779BC"/>
<path transform="translate(532,758)" d="m0 0 2 1-2 5h-10l2-3 7-1z" fill="#2678BB"/>
<path transform="translate(444,705)" d="m0 0h1l1 10-1 10-2 1v-14z" fill="#2172B6"/>
<path transform="translate(736,681)" d="m0 0 6 2-2 1-1 2h-5l-2 2-2-4z" fill="#2F84C5"/>
<path transform="translate(458,681)" d="m0 0h11l6 1v1l-17 1-2-2z" fill="#2274B7"/>
<path transform="translate(663,451)" d="m0 0 1 2 2 1-1 6h-2v2h-2v-7z" fill="#2E82C3"/>
<path transform="translate(409,423)" d="m0 0h3l1 5-2 2-4-1-1-3z" fill="#2375B8"/>
<path transform="translate(544,768)" d="m0 0h3v12h2v8h-3v-19z" fill="#2374B8"/>
<path transform="translate(480,519)" d="m0 0 5 2 1 4-1 2-4-2-2-4z" fill="#2678BB"/>
<path transform="translate(466,430)" d="m0 0 6 2-1 5h-5l1-4-2-1z" fill="#2172B6"/>
<path transform="translate(386,423)" d="m0 0h7l-1 5-7-1z" fill="#2577BA"/>
<path transform="translate(461,404)" d="m0 0 7 2 1 3-7 2z" fill="#2172B6"/>
<path transform="translate(584,343)" d="m0 0h1v8l-1-3h-2l1 5h-5l-1-4 3-1 3-3z" fill="#2172B6"/>
<path transform="translate(573,294)" d="m0 0 2 3 1 7-3 3-1-4v-8z" fill="#2476BA"/>
<path transform="translate(533,220)" d="m0 0 2 1-1 9-4-2 2-7z" fill="#3186C7"/>
<path transform="translate(559,710)" d="m0 0h2l1 6-1 2h-4v-3h-2l1-4zm-2 2 1 4 2-1-1-3z" fill="#3186C7"/>
<path transform="translate(381,592)" d="m0 0h10l1 4v4l-3 1-1-8h-7z" fill="#3389C9"/>
<path transform="translate(547,517)" d="m0 0 1 4-3 5-3 1v2l-4-1 8-8z" fill="#277ABD"/>
<path transform="translate(431,496)" d="m0 0 4 2 8 2v2l-13-1-1-3z" fill="#2A7EC0"/>
<path transform="translate(470,464)" d="m0 0 4 4 9 14-1 2-7-10-5-8z" fill="#287BBD"/>
<path transform="translate(451,454)" d="m0 0 3 1 3 5 5 5-1 2-7-7-4-2z" fill="#287BBD"/>
<path transform="translate(680,393)" d="m0 0h5v4l-13-1v-1z" fill="#287BBD"/>
<path transform="translate(592,388)" d="m0 0 4 1-3 3-2 5h-3l1-4-2-1z" fill="#2577BA"/>
<path transform="translate(340,322)" d="m0 0 5 2-2 4h-4l-1-4z" fill="#2678BB"/>
<path transform="translate(530,229)" d="m0 0 3 1-2 6-2 3-3-1z" fill="#2375B8"/>
<path transform="translate(612,685)" d="m0 0h6l4 2-1 1-12 1v-3z" fill="#2B7FC1"/>
<path transform="translate(405,631)" d="m0 0 2 1v2l-13 4-2-1z" fill="#287BBD"/>
<path transform="translate(575,617)" d="m0 0 8 3-3 2-7-1v-3z" fill="#2678BB"/>
<path transform="translate(462,467)" d="m0 0 7 6 8 9-1 2-14-15z" fill="#2A7EC0"/>
<path transform="translate(633,423)" d="m0 0h7l1 4h-8z" fill="#2273B7"/>
<path transform="translate(402,412)" d="m0 0 4 1v5l-5 1-1-1v-5zm0 2v3h2l-1-3z" fill="#2577BA"/>
<path transform="translate(554,386)" d="m0 0h1l1 10-5-3v-5z" fill="#2273B7"/>
<path transform="translate(354,377)" d="m0 0 4 1 1 3-2 2-5-1 1-4z" fill="#2374B8"/>
<path transform="translate(705,368)" d="m0 0 3 2-2 4h-5l1-5z" fill="#2577BA"/>
<path transform="translate(509,287)" d="m0 0 4 2-4 6-5 1z" fill="#2E83C4"/>
<path transform="translate(402,776)" d="m0 0h1v12l-1 1h-6l4-2 1-8z" fill="#3288C8"/>
<path transform="translate(700,772)" d="m0 0h7l4 3-18 1v-2h7z" fill="#2172B6"/>
<path transform="translate(328,759)" d="m0 0h16l-1 2-7 1v-2l-8 1z" fill="#3389C9"/>
<path transform="translate(564,690)" d="m0 0 5 1v2h-4v7l-2 2v-11z" fill="#2E83C4"/>
<path transform="translate(332,640)" d="m0 0h16l2 3h-9l-9-2z" fill="#2C80C2"/>
<path transform="translate(373,610)" d="m0 0 3 1 4 2-12 2-4 1 4-4z" fill="#297CBE"/>
<path transform="translate(430,555)" d="m0 0 2 1-5 3-4 4-2-2v-3z" fill="#297CBE"/>
<path transform="translate(534,529)" d="m0 0h4l1 3h-4l2 1-1 3-4-1 1-5z" fill="#297CBE"/>
<path transform="translate(372,514)" d="m0 0 2 4 6-1v3l-7 1-3-3v-3z" fill="#2475B9"/>
<path transform="translate(438,436)" d="m0 0h2l-1 3-6 3h-3l1-4z" fill="#2375B8"/>
<path transform="translate(543,428)" d="m0 0h2l-1 6-2 3h-2l-1-4z" fill="#2577BA"/>
<path transform="translate(669,377)" d="m0 0h4l1 4-1 2-5-1z" fill="#2375B8"/>
<path transform="translate(558,354)" d="m0 0 4 1-1 4h-2l-1 3-1-3-2-1z" fill="#2274B7"/>
<path transform="translate(684,322)" d="m0 0 4 1 1 3-2 2h-4l-1-4z" fill="#2475B9"/>
<path transform="translate(579,239)" d="m0 0h2l2 8v6l-3-1-2-12z" fill="#2F84C5"/>
<path transform="translate(431,522)" d="m0 0 6 1h8v1l-11 1v2l-4-1z" fill="#2578BB"/>
<path transform="translate(483,491)" d="m0 0 3 1 1 6h-4l-2-5z" fill="#2C80C1"/>
<path transform="translate(463,453)" d="m0 0h4l1 6 2 5-4-4-1-2-3-1z" fill="#297CBE"/>
<path transform="translate(622,412)" d="m0 0 4 2-1 5-5-1-1-3zm0 2-1 3h3l-1-3z" fill="#2779BC"/>
<path transform="translate(467,383)" d="m0 0 5 2-1 3-3 3h-2v-7z" fill="#3186C7"/>
<path transform="translate(410,362)" d="m0 0 5 3 4 5-4 1-5-7z" fill="#2476B9"/>
<path transform="translate(597,338)" d="m0 0 3 1-4 7-2 1v-3l-2-1z" fill="#297DBF"/>
<path transform="translate(649,313)" d="m0 0 2 1-5 8-2 3h-2l2-6z" fill="#287BBD"/>
<path transform="translate(577,227)" d="m0 0 2 1 1 11-2 1-2-6z" fill="#2577BA"/>
<path transform="translate(648,767)" d="m0 0 2 2 2-1v9l-4-2z" fill="#2172B6"/>
<path transform="translate(505,710)" d="m0 0 3 3v8l-3-3v-5h-2v-2z" fill="#3288C8"/>
<path transform="translate(531,475)" d="m0 0h1v8l-5 1 2-6z" fill="#2B7FC1"/>
<path transform="translate(487,464)" d="m0 0 5 3-2 6h-2l-2-8z" fill="#2F84C4"/>
<path transform="translate(517,391)" d="m0 0 2 1-3 7h-2l-2-6h5z" fill="#2B7FC1"/>
<path transform="translate(451,335)" d="m0 0h2l-1 6-3 1-1-4zm-4 5m-1 1 2 2-3 1z" fill="#2679BC"/>
<path transform="translate(618,299)" d="m0 0 7 2 4 3-5 2z" fill="#2C80C2"/>
<path transform="translate(504,729)" d="m0 0 2 1-4 5-7 2v-2l5-3z" fill="#297CBE"/>
<path transform="translate(591,688)" d="m0 0 2 2-1 3-4-1-13-1v-1l15-1z" fill="#3288C8"/>
<path transform="translate(590,681)" d="m0 0h4l-1 9-4-2z" fill="#287BBD"/>
<path transform="translate(513,549)" d="m0 0 3 1v5l-4 1-1-4z" fill="#297CBE"/>
<path transform="translate(435,471)" d="m0 0 4 1 7 5-2 1-4-2-5-1z" fill="#2779BC"/>
<path transform="translate(530,439)" d="m0 0 3 2-1 4-3 2-3-4z" fill="#277ABD"/>
<path transform="translate(714,436)" d="m0 0 2 3-2 4-4 1-2-1z" fill="#2B7FC1"/>
<path transform="translate(486,346)" d="m0 0h4l2 8-3-1-3-4z" fill="#297CBE"/>
<path transform="translate(673,300)" d="m0 0 3 1v3h2l-1 4h-4z" fill="#2F84C5"/>
<path transform="translate(591,278)" d="m0 0 5 1 3 5-4 1-4-6z" fill="#2B7FC1"/>
<path transform="translate(453,228)" d="m0 0 2 2-3 9h-3l3-10z" fill="#2779BC"/>
<path transform="translate(338,740)" d="m0 0 3 3-2 1h-13v-1h6v-2h3v2z" fill="#3187C7"/>
<path transform="translate(655,685)" d="m0 0h12v2l-4 1-9-1z" fill="#3389C9"/>
<path transform="translate(463,685)" d="m0 0 4 1-1 4-6 1v-4h3z" fill="#3288C8"/>
<path transform="translate(276,682)" d="m0 0h11v1l-9 2v2l2 1h-5z" fill="#3288C8"/>
<path transform="translate(475,529)" d="m0 0 2 1-15 9-2-1 13-8z" fill="#297CBE"/>
<path transform="translate(475,505)" d="m0 0 3 2v7l-2 2-1-1-1-9z" fill="#2D81C3"/>
<path transform="translate(409,503)" d="m0 0 9 2v1l-9 2-1-4z" fill="#2A7DBF"/>
<path transform="translate(566,485)" d="m0 0 2 1-12 7-3-1z" fill="#297CBE"/>
<path transform="translate(601,446)" d="m0 0 3 1 3 5-1 3-6-7z" fill="#2679BB"/>
<path transform="translate(296,410)" d="m0 0 5 1 1 1v5l-2 2-4-1 3-2-1-4z" fill="#2375B8"/>
<path transform="translate(569,391)" d="m0 0 5 1v5l-3 1-3-2zm1 2v3l3-1-1-2z" fill="#2A7EC0"/>
<path transform="translate(453,390)" d="m0 0 4 1 1 5-4 1-2-2zm1 2v3h3l-1-3z" fill="#287BBE"/>
<path transform="translate(340,392)" d="m0 0 5 1v4l-5-1z" fill="#2B7FC0"/>
<path transform="translate(428,384)" d="m0 0h3l3 4-1 2-2-1v2h-2l-2-4z" fill="#2273B7"/>
<path transform="translate(348,363)" d="m0 0 6 1 5 2-1 3-9-4z" fill="#2679BB"/>
<path transform="translate(381,264)" d="m0 0h8l1 5-1-3-7 1-2-2z" fill="#3086C6"/>
<path transform="translate(415,246)" d="m0 0 4 1 2 5h-4l-4-5z" fill="#2476B9"/>
<path transform="translate(502,231)" d="m0 0h2l2 7-1 2h-2v-2l-2-1v-5z" fill="#2C80C1"/>
<path transform="translate(474,534)" d="m0 0 2 1-13 10-2-1z" fill="#287BBD"/>
<path transform="translate(447,414)" d="m0 0 5 1v5l-4 1-1-1zm1 1v2h2v-2zm0 3 2 2v-2z" fill="#2A7DBF"/>
<path transform="translate(592,414)" d="m0 0 5 1-1 4h-5l-1-3z" fill="#2F84C5"/>
<path transform="translate(646,413)" d="m0 0 5 1-1 5-5-1zm1 1m0 2 2 2v-2z" fill="#2B7FC1"/>
<path transform="translate(428,364)" d="m0 0h4l1 5-4 1-2-2zm1 1 1 3v-3z" fill="#2678BB"/>
<path transform="translate(580,547)" d="m0 0 6 2 10 6-2 1-14-8z" fill="#297CBE"/>
<path transform="translate(535,488)" d="m0 0 3 1 1 3-3 1v2h-3z" fill="#2C80C1"/>
<path transform="translate(458,485)" d="m0 0 6 2 9 5-1 2-14-8z" fill="#277ABD"/>
<path transform="translate(460,417)" d="m0 0 3 1v5l-4 1-1-5zm0 2v3l2-1v-2z" fill="#2C80C1"/>
<path transform="translate(430,414)" d="m0 0 6 1-1 4h-6z" fill="#3086C6"/>
<path transform="translate(376,413)" d="m0 0 5 1-1 5-5-1zm1 1v4h2z" fill="#2D82C3"/>
<path transform="translate(393,413)" d="m0 0h4v6h-5l-1-4zm0 2 1 3 2-1v-2z" fill="#2A7DBF"/>
<path transform="translate(580,383)" d="m0 0 3 2-1 4-4 1-1-4zm0 2-1 3h2z" fill="#2678BB"/>
<path transform="translate(505,544)" d="m0 0 4 2v4l-4-1-1-4z" fill="#2B80C1"/>
<path transform="translate(549,507)" d="m0 0h3v6l-3 3z" fill="#2E83C4"/>
<path transform="translate(591,480)" d="m0 0h3l1 4-5 1-3-1z" fill="#2C81C2"/>
<path transform="translate(432,480)" d="m0 0h4l1 4-5 1-1-4z" fill="#2578BA"/>
<path transform="translate(575,414)" d="m0 0 5 1-1 5-4 1-1-1v-5zm0 1v2h3v-2z" fill="#287BBD"/>
<path transform="translate(630,413)" d="m0 0 4 1 1 3-2 2-5-1 1-4zm0 2v3l3-1-1-2z" fill="#287BBD"/>
<path transform="translate(407,536)" d="m0 0 7 1-3 1-1 3-4-2z" fill="#2679BC"/>
<path transform="translate(557,420)" d="m0 0 4 1v5l-4 1-1-1v-5zm0 2 2 4v-4z" fill="#277ABC"/>
<path transform="translate(444,383)" d="m0 0 4 1 1 5-3 1-3-4zm1 1 1 4 1-3z" fill="#2A7DBF"/>
<path transform="translate(588,471)" d="m0 0h4v4l-3 1-3-2z" fill="#2779BC"/>
<path transform="translate(595,364)" d="m0 0 4 2-1 4-4-1zm1 2 1 2z" fill="#2B7FC0"/>
<path transform="translate(601,557)" d="m0 0 4 1-1 4-4-1z" fill="#287BBD"/>
<path transform="translate(505,495)" d="m0 0h3v8h-2l-2-7z" fill="#2577BA"/>
<path transform="translate(463,478)" d="m0 0 4 2 7 7h-3l-8-8z" fill="#2C80C2"/>
<path transform="translate(563,467)" d="m0 0v3l-8 8v-3z" fill="#2A7DBF"/>
<path transform="translate(583,415)" d="m0 0 5 1v3l-4 1-2-1zm1 1v2h2v-2z" fill="#2F84C5"/>
<path transform="translate(581,373)" d="m0 0 5 1-1 4-4 1-1-5zm1 1v4h2l1-3z" fill="#297CBE"/>
<path transform="translate(593,496)" d="m0 0 3 2-1 3-6-1z" fill="#2476BA"/>
<path transform="translate(573,465)" d="m0 0 4 1v3l-5 1z" fill="#2D81C3"/>
<path transform="translate(450,465)" d="m0 0 4 2v3l-5-1z" fill="#2679BC"/>
<path transform="translate(639,414)" d="m0 0h3l1 4-5 1-1-4zm0 1v3h2l-1-3z" fill="#2E82C4"/>
<path transform="translate(437,378)" d="m0 0 4 3-1 3-4-1v-4zm0 2 1 3v-3z" fill="#277ABD"/>
<path transform="translate(587,379)" d="m0 0h3l1 4h-2v2l-3-1zm1 2 1 2z" fill="#2E82C4"/>
<path transform="translate(588,364)" d="m0 0 3 3-2 4-3-1 1-5zm0 2-1 3h2z" fill="#2A7EC0"/>
<path transform="translate(437,363)" d="m0 0 2 1v3h2l-1 3-4-2z" fill="#2C80C2"/>
<path transform="translate(592,357)" d="m0 0 4 1-1 4h-4zm0 2v2h2v-2z" fill="#277ABD"/>
<path transform="translate(456,540)" d="m0 0 2 1-10 6-2-1z" fill="#2779BC"/>
<path transform="translate(528,489)" d="m0 0h5l-1 4h-4z" fill="#3085C5"/>
<path transform="translate(439,415)" d="m0 0h5v4h-5zm2 1 1 2z" fill="#2A7DBF"/>
<path transform="translate(368,412)" d="m0 0 4 1v4h-3l-2-4zm1 1v3h2l-1-3z" fill="#297CBE"/>
<path transform="translate(591,371)" d="m0 0 3 1-2 5-3-1z" fill="#2E82C3"/>
<path transform="translate(431,357)" d="m0 0 5 1-1 4h-3zm2 1v2l2-1z" fill="#2C80C1"/>
<path transform="translate(573,454)" d="m0 0 4 2v2l-5 1z" fill="#2476B9"/>
<path transform="translate(599,351)" d="m0 0 2 1-1 5h-3l1-5z" fill="#297CBE"/>
<path transform="translate(578,552)" d="m0 0 3 1-1 4-3-1-1-3z" fill="#2B7EC0"/>
<path transform="translate(555,538)" d="m0 0 5 2 5 5-5-2z" fill="#287CBE"/>
<path transform="translate(568,415)" d="m0 0 3 1v3l-4 2-1-5z" fill="#3086C6"/>
<path transform="translate(570,459)" d="m0 0 2 1-7 7v-3z" fill="#2B7FC1"/>
<path transform="translate(441,373)" d="m0 0h4v5h-3l-2-4zm1 1v3h2v-3z" fill="#297CBE"/>
<path transform="translate(434,370)" d="m0 0 3 2-1 4h-2l-1-5z" fill="#2E82C3"/>
<path transform="translate(425,352)" d="m0 0 4 1v4l-4-1zm1 2 2 2v-2z" fill="#2779BC"/>
<path transform="translate(561,478)" d="m0 0 2 1-6 6-2-1z" fill="#287BBE"/>
<path transform="translate(548,475)" d="m0 0 1 2-5 7v-3z" fill="#277ABC"/>
<path transform="translate(570,470)" d="m0 0 2 1-6 6-2-1z" fill="#287BBE"/>
<path transform="translate(455,471)" d="m0 0 4 2 4 5-4-2z" fill="#287BBE"/>
<path transform="translate(384,414)" d="m0 0 1 3h2v-3h2l-1 4-3 1z" fill="#2A7DBF"/>
<path transform="translate(444,547)" d="m0 0 2 1-7 4-2-1z" fill="#2A7EC0"/>
<path transform="translate(552,479)" d="m0 0v3l-5 4 2-4z" fill="#287BBD"/>
<path transform="translate(568,547)" d="m0 0 5 2 2 3-5-2z" fill="#277ABC"/>
<path transform="translate(504,521)" d="m0 0 4 2v2h-3z" fill="#277ABC"/>
<path transform="translate(522,493)" d="m0 0h2l-1 4-3-1z" fill="#2F84C5"/>
<path transform="translate(657,411)" d="m0 0 2 1v4h-2v-3l-2-1z" fill="#2C80C2"/>
<path transform="translate(573,543)" d="m0 0 6 2 1 2-6-2z" fill="#287BBD"/>
<path transform="translate(566,539)" d="m0 0 6 2 1 2-6-2z" fill="#287BBD"/>
<path transform="translate(559,535)" d="m0 0 6 2 1 2-6-2z" fill="#287BBD"/>
<path transform="translate(552,531)" d="m0 0 6 2 1 2-6-2z" fill="#287BBD"/>
<path transform="translate(573,481)" d="m0 0 2 1-5 3-2-1z" fill="#2A7DBF"/>
<path transform="translate(446,478)" d="m0 0 6 2 1 2-6-2z" fill="#2678BB"/>
<path transform="translate(580,477)" d="m0 0 2 1-5 3-2-1z" fill="#2A7DBF"/>
<path transform="translate(530,686)" d="m0 0 3 1-1 2h-3z" fill="#2D81C2"/>
<path transform="translate(362,785)" d="m0 0h8v1h-8z" fill="#3389C9"/>
<path transform="translate(584,613)" d="m0 0 5 1-4 1z" fill="#3389C9"/>
<path transform="translate(528,521)" d="m0 0h4l-1 3z" fill="#2E83C4"/>
<path transform="translate(435,552)" d="m0 0 2 1-5 2z" fill="#2B7FC0"/>
<path transform="translate(552,486)" d="m0 0 2 1-4 3z" fill="#2B7FC0"/>
<path transform="translate(453,482)" d="m0 0 5 2-2 1z" fill="#2678BB"/>
<path transform="translate(440,485)" d="m0 0 5 1-3 1z" fill="#2779BC"/>
<path transform="translate(654,413)" d="m0 0 1 3 2 1h-3z" fill="#2475B9"/>
<path transform="translate(565,545)" d="m0 0 3 1h-3z" fill="#2A7DBF"/>
<path transform="translate(552,536)" d="m0 0 3 1h-3z" fill="#2577BA"/>
<path transform="translate(548,533)" d="m0 0 3 1h-3z" fill="#2A7DBF"/>
<path transform="translate(477,532)" d="m0 0 2 1h-3z" fill="#2E83C4"/>
<path transform="translate(549,529)" d="m0 0 3 1h-3z" fill="#2E83C4"/>
<path transform="translate(584,485)" d="m0 0 3 1z" fill="#2D81C2"/>
<path transform="translate(437,484)" d="m0 0 3 1z" fill="#2D81C2"/>
<path transform="translate(370,463)" d="m0 0 1 2-2-1z" fill="#2D81C2"/>
<path transform="translate(360,784)" d="m0 0 2 1z" fill="#3389C9"/>
<path transform="translate(700,557)" d="m0 0 2 1z" fill="#3389C9"/>
<path transform="translate(598,557)" d="m0 0 2 1z" fill="#2A7DBF"/>
<path transform="translate(596,556)" d="m0 0 2 1z" fill="#2A7DBF"/>
<path transform="translate(458,539)" d="m0 0 2 1z" fill="#2172B6"/>
<path transform="translate(478,485)" d="m0 0" fill="#2A7DBF"/>
<path transform="translate(582,476)" d="m0 0 2 1z" fill="#2A7DBF"/>
<path transform="translate(584,475)" d="m0 0 2 1z" fill="#2A7DBF"/>
<path transform="translate(651,783)" d="m0 0" fill="#3389C9"/>
<path transform="translate(359,783)" d="m0 0" fill="#3389C9"/>
<path transform="translate(593,654)" d="m0 0" fill="#3389C9"/>
<path transform="translate(380,643)" d="m0 0" fill="#3389C9"/>
<path transform="translate(339,626)" d="m0 0" fill="#2172B6"/>
<path transform="translate(716,624)" d="m0 0" fill="#3389C9"/>
<path transform="translate(457,568)" d="m0 0" fill="#3389C9"/>
<path transform="translate(575,552)" d="m0 0" fill="#3389C9"/>
<path transform="translate(551,535)" d="m0 0" fill="#2172B6"/>
<path transform="translate(547,532)" d="m0 0" fill="#2172B6"/>
<path transform="translate(475,489)" d="m0 0" fill="#2172B6"/>
<path transform="translate(474,488)" d="m0 0" fill="#3389C9"/>
<path transform="translate(554,485)" d="m0 0" fill="#2172B6"/>
<path transform="translate(477,484)" d="m0 0" fill="#3389C9"/>
<path transform="translate(553,478)" d="m0 0" fill="#2172B6"/>
<path transform="translate(563,477)" d="m0 0" fill="#2172B6"/>
<path transform="translate(532,474)" d="m0 0" fill="#3389C9"/>
<path transform="translate(454,470)" d="m0 0" fill="#2172B6"/>
<path transform="translate(363,402)" d="m0 0" fill="#3389C9"/>
</svg>
